<?xml version="1.0" encoding="UTF-8" standalone="no"?>
<!-- Created with Inkscape (http://www.inkscape.org/) -->

<svg
   xmlns:dc="http://purl.org/dc/elements/1.1/"
   xmlns:cc="http://creativecommons.org/ns#"
   xmlns:rdf="http://www.w3.org/1999/02/22-rdf-syntax-ns#"
   xmlns:svg="http://www.w3.org/2000/svg"
   xmlns="http://www.w3.org/2000/svg"
   xmlns:sodipodi="http://sodipodi.sourceforge.net/DTD/sodipodi-0.dtd"
   xmlns:inkscape="http://www.inkscape.org/namespaces/inkscape"
   width="33.060551"
   height="19.47266"
   id="svg2"
   version="1.1"
   inkscape:version="0.91pre2+osxmenu r12825"
   viewBox="0 0 33.06055 19.47266"
   sodipodi:docname="logo.svg">
  <defs
     id="defs4" />
  <sodipodi:namedview
     id="base"
     pagecolor="#ffffff"
     bordercolor="#666666"
     borderopacity="1.0"
     inkscape:pageopacity="0.0"
     inkscape:pageshadow="2"
     inkscape:zoom="4"
     inkscape:cx="-36.006308"
     inkscape:cy="24.517353"
     inkscape:document-units="px"
     inkscape:current-layer="layer1"
     showgrid="false"
     inkscape:snap-grids="true"
     inkscape:window-width="1258"
     inkscape:window-height="749"
     inkscape:window-x="20"
     inkscape:window-y="25"
     inkscape:window-maximized="0"
     fit-margin-top="1"
     fit-margin-left="1"
     fit-margin-right="1"
     fit-margin-bottom="1">
    <inkscape:grid
       type="xygrid"
       id="grid4320"
       originx="-207.92773px"
       originy="-605.08098px" />
  </sodipodi:namedview>
  <metadata
     id="metadata7">
    <rdf:RDF>
      <cc:Work
         rdf:about="">
        <dc:format>image/svg+xml</dc:format>
        <dc:type
           rdf:resource="http://purl.org/dc/dcmitype/StillImage" />
        <dc:title></dc:title>
      </cc:Work>
    </rdf:RDF>
  </metadata>
  <g
     inkscape:label="Layer 1"
     inkscape:groupmode="layer"
     id="layer1"
     transform="translate(-207.92773,-427.80854)">
    <path
       style="font-style:normal;font-variant:normal;font-weight:normal;font-stretch:normal;font-size:24.10017204px;line-height:125%;font-family:Otamaep;-inkscape-font-specification:Otamaep;letter-spacing:0px;word-spacing:0px;fill:#000000;fill-opacity:1;stroke:none;stroke-width:1px;stroke-linecap:butt;stroke-linejoin:miter;stroke-opacity:1"
       d="m 46.751953,24.292969 0,0.3125 1.300781,0 6.291016,17.160156 0.384766,0 4.373046,-11.654297 4.332032,11.654297 0.361328,0 4.353516,-11.654297 4.291015,11.341797 -1.447265,0 0,0.3125 6.820312,0 0,-0.3125 -1.300781,0 -6.291016,-17.160156 -0.384765,0 -4.373047,11.654297 -4.332032,-11.654297 -0.361328,0 -4.353515,11.654297 -4.291016,-11.341797 1.447266,0 0,-0.3125 -6.820313,0 z"
       transform="translate(161.11328,384.20307)"
       id="path4358"
       inkscape:connector-curvature="0" />
    <path
       style="opacity:0.5;fill:none;fill-rule:evenodd;stroke:#000000;stroke-width:1px;stroke-linecap:round;stroke-linejoin:round;stroke-opacity:1"
       d="m 103,442.36218 10,-15 0,15 10,-15 0,15"
       id="path4340"
       inkscape:connector-curvature="0"
       sodipodi:nodetypes="ccccc" />
    <path
       style="fill:none;fill-rule:evenodd;stroke:#000000;stroke-width:1px;stroke-linecap:butt;stroke-linejoin:bevel;stroke-opacity:1"
       d="m 60,372.36218 5,15 5,-15 5,15 5,-15 5,15"
       id="path4322"
       inkscape:connector-curvature="0"
       sodipodi:nodetypes="cccccc" />
    <text
       xml:space="preserve"
       style="font-style:normal;font-variant:normal;font-weight:normal;font-stretch:normal;font-size:40px;line-height:125%;font-family:Baskerville;-inkscape-font-specification:Baskerville;letter-spacing:0px;word-spacing:0px;fill:#000000;fill-opacity:1;stroke:none;stroke-width:1px;stroke-linecap:butt;stroke-linejoin:miter;stroke-opacity:1"
       x="59.602501"
       y="370.76913"
       id="text4326"
       sodipodi:linespacing="125%"><tspan
         sodipodi:role="line"
         id="tspan4328"
         x="59.602501"
         y="370.76913">WM</tspan></text>
    <path
       style="color:#000000;font-style:normal;font-variant:normal;font-weight:normal;font-stretch:normal;font-size:medium;line-height:normal;font-family:sans-serif;text-indent:0;text-align:start;text-decoration:none;text-decoration-line:none;text-decoration-style:solid;text-decoration-color:#000000;letter-spacing:normal;word-spacing:normal;text-transform:none;direction:ltr;block-progression:tb;writing-mode:lr-tb;baseline-shift:baseline;text-anchor:start;white-space:normal;clip-rule:nonzero;display:inline;overflow:visible;visibility:visible;opacity:1;isolation:auto;mix-blend-mode:normal;color-interpolation:sRGB;color-interpolation-filters:linearRGB;solid-color:#000000;solid-opacity:1;fill:#000000;fill-opacity:1;fill-rule:evenodd;stroke:none;stroke-width:1px;stroke-linecap:butt;stroke-linejoin:bevel;stroke-miterlimit:4;stroke-dasharray:none;stroke-dashoffset:0;stroke-opacity:1;color-rendering:auto;image-rendering:auto;shape-rendering:auto;text-rendering:auto;enable-background:accumulate"
       d="m 88.113281,385.20312 0,0.0156 0,0.48437 0,0.008 c 0.01284,10e-4 0.02437,0.005 0.03711,0.006 0.860119,0.27177 1.536815,0.71005 1.849609,1.64648 l 5.009766,14.99805 0.08203,0 0.002,0.008 0.949219,0 4.490235,-13.4707 4.4961,13.46289 0.0625,0 0.002,0.008 0.94922,0 4.5,-13.50195 4.50781,13.50195 4,0 0,-0.0137 0,-0.48633 0,-0.008 c -0.0129,-0.001 -0.0243,-0.005 -0.0371,-0.006 -0.86012,-0.27177 -1.53681,-0.71006 -1.84961,-1.64649 l -5.00976,-14.99804 -0.082,0 -0.002,-0.008 -0.94922,0 -4.49023,13.47071 -4.49609,-13.46289 -0.0625,0 -0.002,-0.008 -0.94922,0 -4.5,13.50196 -4.507813,-13.50196 -4,0 z"
       id="path4332"
       inkscape:connector-curvature="0" />
    <text
       xml:space="preserve"
       style="font-style:normal;font-variant:normal;font-weight:normal;font-stretch:normal;font-size:3.33191657px;line-height:125%;font-family:Baskerville;-inkscape-font-specification:Baskerville;letter-spacing:0px;word-spacing:0px;fill:#000000;fill-opacity:1;stroke:none;stroke-width:1px;stroke-linecap:butt;stroke-linejoin:miter;stroke-opacity:1"
       x="106.83797"
       y="402.35754"
       id="text4368"
       sodipodi:linespacing="125%"><tspan
         sodipodi:role="line"
         id="tspan4370"
         x="106.83797"
         y="402.35754">illiam</tspan></text>
    <text
       xml:space="preserve"
       style="font-style:normal;font-variant:normal;font-weight:normal;font-stretch:normal;font-size:3.33191657px;line-height:125%;font-family:Baskerville;-inkscape-font-specification:Baskerville;letter-spacing:0px;word-spacing:0px;fill:#000000;fill-opacity:1;stroke:none;stroke-width:1px;stroke-linecap:butt;stroke-linejoin:miter;stroke-opacity:1"
       x="119.28723"
       y="402.36386"
       id="text4372"
       sodipodi:linespacing="125%"><tspan
         sodipodi:role="line"
         id="tspan4374"
         x="119.28723"
         y="402.36386">alo</tspan></text>
    <path
       style="opacity:0.5;fill:none;fill-rule:evenodd;stroke:#000000;stroke-width:1px;stroke-linecap:round;stroke-linejoin:round;stroke-opacity:1"
       d="m 103,427.36218 0,15 10,-15 0,15 10,-15"
       id="path4338"
       inkscape:connector-curvature="0"
       sodipodi:nodetypes="ccccc" />
    <path
       inkscape:connector-curvature="0"
       id="path4396"
       d="m 162.11328,385.20312 0,0.0156 0,0.48437 0,0.008 c 0.0128,10e-4 0.0244,0.005 0.0371,0.006 0.86012,0.27177 1.53682,0.71005 1.84961,1.64648 l 5.00977,14.99805 0.082,0 0.002,0.008 0.94921,0 4.49024,-13.4707 4.4961,13.46289 0.0625,0 0.002,0.008 0.94922,0 4.5,-13.50195 4.50781,13.50195 4,0 0,-0.0137 0,-0.48633 0,-0.008 c -0.0129,-0.001 -0.0243,-0.005 -0.0371,-0.006 -0.86012,-0.27177 -1.53681,-0.71006 -1.84961,-1.64649 l -5.00976,-14.99804 -0.082,0 -0.002,-0.008 -0.94922,0 -4.49023,13.47071 -4.49609,-13.46289 -0.0625,0 -0.002,-0.008 -0.94922,0 -4.5,13.50196 -4.50781,-13.50196 -4,0 z"
       style="color:#000000;font-style:normal;font-variant:normal;font-weight:normal;font-stretch:normal;font-size:medium;line-height:normal;font-family:sans-serif;text-indent:0;text-align:start;text-decoration:none;text-decoration-line:none;text-decoration-style:solid;text-decoration-color:#000000;letter-spacing:normal;word-spacing:normal;text-transform:none;direction:ltr;block-progression:tb;writing-mode:lr-tb;baseline-shift:baseline;text-anchor:start;white-space:normal;clip-rule:nonzero;display:inline;overflow:visible;visibility:visible;opacity:1;isolation:auto;mix-blend-mode:normal;color-interpolation:sRGB;color-interpolation-filters:linearRGB;solid-color:#000000;solid-opacity:1;fill:#000000;fill-opacity:1;fill-rule:evenodd;stroke:none;stroke-width:1px;stroke-linecap:butt;stroke-linejoin:bevel;stroke-miterlimit:4;stroke-dasharray:none;stroke-dashoffset:0;stroke-opacity:1;color-rendering:auto;image-rendering:auto;shape-rendering:auto;text-rendering:auto;enable-background:accumulate" />
    <path
       style="font-style:normal;font-variant:normal;font-weight:normal;font-stretch:normal;font-size:3.33191657px;line-height:125%;font-family:Baskerville;-inkscape-font-specification:Baskerville;letter-spacing:0px;word-spacing:0px;fill:#000000;fill-opacity:1;stroke:none;stroke-width:1px;stroke-linecap:butt;stroke-linejoin:miter;stroke-opacity:1"
       d="m 195.33008,400.10547 c -0.0336,0.0152 -0.0955,0.0297 -0.18555,0.0449 -0.0889,0.0152 -0.16626,0.0234 -0.23242,0.0234 l 0,0.0742 c 0.0965,0 0.15865,0.0198 0.18359,0.0566 0.025,0.0358 0.0371,0.12376 0.0371,0.26367 l 0,1.31641 c 0,0.15401 -0.004,0.24871 -0.01,0.28125 -0.005,0.0325 -0.0206,0.0577 -0.0488,0.0762 -0.0271,0.0174 -0.0736,0.0254 -0.13867,0.0254 l -0.0449,0 0,0.0742 0.71094,0 0,-0.0742 -0.0391,0 c -0.0694,0 -0.11742,-0.01 -0.14453,-0.0293 -0.0271,-0.0195 -0.0425,-0.0471 -0.0469,-0.084 -0.003,-0.0369 -0.004,-0.12745 -0.004,-0.26953 l 0,-1.7793 -0.0371,0 z m -14.09961,0.0195 c -0.0466,0 -0.0875,0.0172 -0.12109,0.0508 -0.0325,0.0336 -0.0488,0.0725 -0.0488,0.11914 0,0.0477 0.0163,0.0894 0.0488,0.12305 0.0336,0.0336 0.0745,0.0488 0.12109,0.0488 0.0466,0 0.0866,-0.0152 0.11914,-0.0488 0.0325,-0.0336 0.0488,-0.0753 0.0488,-0.12305 0,-0.0466 -0.0163,-0.0855 -0.0488,-0.11914 -0.0325,-0.0336 -0.0725,-0.0508 -0.11914,-0.0508 z m 0.91601,0 c -0.0336,0.0152 -0.0955,0.0297 -0.18554,0.0449 -0.0889,0.0152 -0.16626,0.0234 -0.23242,0.0234 l 0,0.0742 c 0.0965,0 0.15669,0.0178 0.18164,0.0547 0.0249,0.0358 0.0371,0.12376 0.0371,0.26367 l 0,1.31836 c 0,0.15401 -0.002,0.24675 -0.008,0.27929 -0.005,0.0325 -0.0226,0.0577 -0.0508,0.0762 -0.0271,0.0174 -0.0736,0.0273 -0.13867,0.0273 l -0.0449,0 0,0.0742 0.71289,0 0,-0.0742 -0.0391,0 c -0.0694,0 -0.11743,-0.01 -0.14453,-0.0293 -0.0271,-0.0195 -0.0425,-0.0491 -0.0469,-0.0859 -0.003,-0.0369 -0.006,-0.1255 -0.006,-0.26758 l 0,-1.7793 -0.0352,0 z m 0.80079,0 c -0.0336,0.0152 -0.0955,0.0297 -0.18555,0.0449 -0.0889,0.0152 -0.16626,0.0234 -0.23242,0.0234 l 0,0.0742 c 0.0965,0 0.15669,0.0178 0.18164,0.0547 0.0249,0.0358 0.0371,0.12376 0.0371,0.26367 l 0,1.31836 c 0,0.15401 -0.002,0.24675 -0.008,0.27929 -0.005,0.0325 -0.0226,0.0577 -0.0508,0.0762 -0.0271,0.0174 -0.0736,0.0273 -0.13867,0.0273 l -0.0449,0 0,0.0742 0.71289,0 0,-0.0742 -0.0391,0 c -0.0694,0 -0.11742,-0.01 -0.14453,-0.0293 -0.0271,-0.0195 -0.0445,-0.0491 -0.0488,-0.0859 -0.003,-0.0369 -0.004,-0.1255 -0.004,-0.26758 l 0,-1.7793 -0.0351,0 z m 0.71679,0 c -0.0466,0 -0.0875,0.0172 -0.12109,0.0508 -0.0325,0.0336 -0.0488,0.0725 -0.0488,0.11914 0,0.0477 0.0163,0.0894 0.0488,0.12305 0.0336,0.0336 0.0745,0.0488 0.12109,0.0488 0.0466,0 0.0866,-0.0152 0.11914,-0.0488 0.0325,-0.0336 0.0488,-0.0753 0.0488,-0.12305 0,-0.0466 -0.0163,-0.0855 -0.0488,-0.11914 -0.0325,-0.0336 -0.0725,-0.0508 -0.11914,-0.0508 z m 10.34571,0.83203 c -0.18547,0 -0.32231,0.0358 -0.41016,0.10742 -0.0879,0.0705 -0.13086,0.13545 -0.13086,0.19727 0,0.0629 0.0315,0.0957 0.0977,0.0957 0.0738,0 0.11937,-0.0554 0.13671,-0.16601 0.0184,-0.10846 0.1088,-0.16407 0.27149,-0.16407 0.0813,0 0.14736,0.0163 0.19727,0.0488 0.0499,0.0325 0.0818,0.0701 0.0937,0.11133 0.0119,0.0412 0.0176,0.10703 0.0176,0.19922 l 0,0.0664 -0.25195,0.10157 c -0.19198,0.0792 -0.34357,0.16063 -0.45313,0.24414 -0.10846,0.0835 -0.1621,0.18126 -0.1621,0.29297 0,0.0857 0.0326,0.15497 0.0976,0.20703 0.0651,0.0521 0.1424,0.0781 0.23242,0.0781 0.0705,0 0.14934,-0.0195 0.23829,-0.0586 0.09,-0.039 0.19036,-0.0968 0.29882,-0.17383 0.013,0.077 0.0397,0.13479 0.082,0.17383 0.0434,0.0391 0.10203,0.0586 0.17579,0.0586 0.17245,0 0.26367,-0.0938 0.27343,-0.27929 l -0.0605,0 c -0.0174,0.10629 -0.0612,0.16015 -0.13282,0.16015 -0.0434,0 -0.071,-0.0189 -0.084,-0.0547 -0.013,-0.0358 -0.0195,-0.11636 -0.0195,-0.24218 l 0,-0.53711 c 0,-0.11388 -0.0122,-0.1986 -0.0371,-0.25391 -0.0239,-0.0553 -0.0745,-0.10506 -0.15039,-0.14844 -0.0759,-0.0434 -0.18257,-0.0645 -0.32031,-0.0645 z m 2.47851,0 c -0.19957,0 -0.36726,0.0673 -0.5039,0.20508 -0.13668,0.13666 -0.20508,0.30782 -0.20508,0.51172 0,0.22018 0.0693,0.3961 0.20703,0.52734 0.13883,0.13015 0.30564,0.19531 0.50195,0.19531 0.19632,0 0.36508,-0.0654 0.50391,-0.19336 0.13883,-0.12907 0.20703,-0.30477 0.20703,-0.52929 0,-0.20282 -0.0684,-0.37397 -0.20508,-0.51172 -0.13666,-0.13774 -0.30521,-0.20508 -0.50586,-0.20508 z m -15.14844,0.0176 c -0.10629,0.038 -0.25614,0.0684 -0.44922,0.0879 l 0,0.0742 0.043,0 c 0.0607,0 0.1031,0.003 0.12696,0.0117 0.0249,0.009 0.0445,0.0317 0.0586,0.0664 0.0152,0.0347 0.0234,0.12898 0.0234,0.28516 l 0,0.4043 c 0,0.14859 -0.003,0.23808 -0.008,0.26953 -0.003,0.0304 -0.0152,0.0573 -0.0391,0.0801 -0.0228,0.0217 -0.0734,0.0332 -0.15039,0.0332 l -0.0547,0 0,0.0742 0.7168,0 0,-0.0742 -0.0332,0 c -0.0694,0 -0.11937,-0.01 -0.14649,-0.0293 -0.0271,-0.0195 -0.0425,-0.0491 -0.0469,-0.0859 -0.004,-0.0369 -0.006,-0.1255 -0.006,-0.26758 l 0,-0.92969 -0.0352,0 z m 2.4336,0 c -0.10629,0.038 -0.25616,0.0684 -0.44922,0.0879 l 0,0.0742 0.043,0 c 0.0607,0 0.10309,0.003 0.12695,0.0117 0.025,0.009 0.0445,0.0317 0.0586,0.0664 0.0152,0.0347 0.0234,0.12898 0.0234,0.28516 l 0,0.4043 c 0,0.14859 -0.002,0.23808 -0.006,0.26953 -0.003,0.0304 -0.0172,0.0573 -0.041,0.0801 -0.0228,0.0217 -0.0734,0.0332 -0.15039,0.0332 l -0.0547,0 0,0.0742 0.7168,0 0,-0.0742 -0.0332,0 c -0.0694,0 -0.11741,-0.01 -0.14453,-0.0293 -0.0271,-0.0195 -0.0445,-0.0491 -0.0488,-0.0859 -0.004,-0.0369 -0.006,-0.1255 -0.006,-0.26758 l 0,-0.92969 -0.0352,0 z m 1.05468,0 c -0.18546,0 -0.3223,0.0358 -0.41015,0.10742 -0.0879,0.0705 -0.13281,0.1374 -0.13281,0.19922 0,0.0629 0.0334,0.0937 0.0996,0.0937 0.0737,0 0.11936,-0.0554 0.13671,-0.16602 0.0184,-0.10846 0.1088,-0.16211 0.27149,-0.1621 0.0813,0 0.14737,0.0163 0.19726,0.0488 0.0499,0.0325 0.0799,0.0701 0.0918,0.11133 0.0119,0.0412 0.0176,0.10703 0.0176,0.19922 l 0,0.0645 -0.25195,0.10352 c -0.19198,0.0792 -0.34163,0.16063 -0.45118,0.24414 -0.10846,0.0835 -0.16406,0.18126 -0.16406,0.29297 0,0.0857 0.0326,0.15497 0.0977,0.20703 0.0651,0.0521 0.14435,0.0781 0.23437,0.0781 0.0705,0 0.14935,-0.0196 0.23828,-0.0586 0.09,-0.039 0.18842,-0.0988 0.29688,-0.17578 0.013,0.077 0.0417,0.13674 0.084,0.17578 0.0434,0.039 0.10203,0.0586 0.17579,0.0586 0.17244,0 0.26367,-0.0938 0.27343,-0.27929 l -0.0605,0 c -0.0174,0.10629 -0.0612,0.16015 -0.13282,0.16015 -0.0434,0 -0.0729,-0.0189 -0.0859,-0.0547 -0.013,-0.0358 -0.0195,-0.11637 -0.0195,-0.24219 l 0,-0.53906 c 0,-0.11388 -0.0122,-0.19859 -0.0371,-0.25391 -0.0239,-0.0553 -0.0725,-0.1031 -0.14844,-0.14648 -0.0759,-0.0434 -0.18255,-0.0664 -0.32032,-0.0664 z m 1.3125,0 c -0.10086,0.0336 -0.22879,0.059 -0.38281,0.0742 l 0,0.0742 c 0.0748,0 0.1261,0.008 0.1543,0.0254 0.0293,0.0174 0.0464,0.0434 0.0508,0.0781 0.005,0.0336 0.008,0.12746 0.008,0.2793 l 0,0.39844 c 0,0.16052 -0.003,0.25566 -0.01,0.28711 -0.007,0.0315 -0.0234,0.056 -0.0527,0.0723 -0.0282,0.0152 -0.0788,0.0234 -0.15039,0.0234 l 0,0.0742 0.65235,0 0,-0.0742 c -0.0727,0 -0.12219,-0.009 -0.15039,-0.0273 -0.0282,-0.0184 -0.0445,-0.0462 -0.0488,-0.082 -0.004,-0.0358 -0.008,-0.12701 -0.008,-0.27343 l 0,-0.55469 c 0.0727,-0.0868 0.14348,-0.15193 0.2129,-0.19531 0.0705,-0.0434 0.13978,-0.0645 0.20703,-0.0645 0.0694,0 0.12717,0.0187 0.17383,0.0566 0.0466,0.0369 0.0753,0.0816 0.084,0.13477 0.01,0.0521 0.0137,0.13677 0.0137,0.25391 l 0,0.36914 c 0,0.16161 -0.004,0.25761 -0.0117,0.28906 -0.007,0.0315 -0.0234,0.0551 -0.0527,0.0703 -0.0282,0.0152 -0.0797,0.0234 -0.15235,0.0234 l 0,0.0742 0.64454,0 0,-0.0742 c -0.0683,0 -0.11547,-0.01 -0.14258,-0.0293 -0.026,-0.0206 -0.0406,-0.0502 -0.0449,-0.0859 -0.003,-0.0369 -0.006,-0.1255 -0.006,-0.26758 l 0,-0.52539 c 0.0716,-0.0965 0.14239,-0.16907 0.21289,-0.2168 0.0716,-0.0477 0.14239,-0.0703 0.21289,-0.0703 0.0694,0 0.12654,0.0143 0.16992,0.0469 0.0434,0.0325 0.0703,0.0716 0.0801,0.11719 0.0108,0.0456 0.0156,0.11506 0.0156,0.20508 l 0,0.44336 c 0,0.15944 -0.003,0.25457 -0.01,0.28711 -0.007,0.0315 -0.0234,0.056 -0.0527,0.0723 -0.0282,0.0152 -0.0779,0.0234 -0.14843,0.0234 l 0,0.0742 0.66601,0 0,-0.0742 c -0.0781,0 -0.13282,-0.009 -0.16211,-0.0254 -0.0282,-0.0163 -0.0462,-0.0406 -0.0527,-0.0742 -0.005,-0.0336 -0.008,-0.1281 -0.008,-0.2832 l 0,-0.40039 c 0,-0.13558 -0.006,-0.23419 -0.0215,-0.29493 -0.0152,-0.0607 -0.0593,-0.11438 -0.13086,-0.1621 -0.0716,-0.0477 -0.15868,-0.0723 -0.26172,-0.0723 -0.09,0 -0.17885,0.0263 -0.26562,0.0762 -0.0868,0.0499 -0.17148,0.12483 -0.25391,0.22461 -0.0271,-0.0998 -0.0742,-0.17472 -0.14258,-0.22461 -0.0683,-0.0499 -0.15803,-0.0762 -0.26758,-0.0762 -0.0965,0 -0.18688,0.0237 -0.27148,0.0703 -0.0835,0.0466 -0.16169,0.11767 -0.23438,0.21094 0,-0.11388 -0.0154,-0.20858 -0.0469,-0.28125 l -0.0156,0 z m 10.34766,0.0566 c 0.14317,0 0.25329,0.0506 0.32813,0.15039 0.0748,0.0998 0.11132,0.26573 0.11132,0.5 0,0.23645 -0.0374,0.40261 -0.11328,0.49805 -0.0748,0.0944 -0.18409,0.14062 -0.32617,0.14062 -0.13883,0 -0.24526,-0.0463 -0.32226,-0.14062 -0.077,-0.0954 -0.11719,-0.2616 -0.11719,-0.49805 0,-0.23535 0.0384,-0.4013 0.11328,-0.5 0.0759,-0.0998 0.18409,-0.15039 0.32617,-0.15039 z m -2.20508,0.49805 0,0.52734 c -0.0835,0.0673 -0.15931,0.11676 -0.22656,0.15039 -0.0673,0.0336 -0.12676,0.0508 -0.17773,0.0508 -0.0575,0 -0.10288,-0.0213 -0.13868,-0.0625 -0.0358,-0.0423 -0.0547,-0.0977 -0.0547,-0.16601 0,-0.17245 0.14009,-0.3158 0.41992,-0.42969 l 0.17773,-0.0703 z m -9.18359,0.0195 0,0.52539 c -0.0835,0.0673 -0.15736,0.11871 -0.22461,0.15234 -0.0673,0.0336 -0.12676,0.0508 -0.17773,0.0508 -0.0575,0 -0.10484,-0.0213 -0.14063,-0.0625 -0.0358,-0.0423 -0.0527,-0.0977 -0.0527,-0.16601 0,-0.17245 0.14009,-0.3158 0.41992,-0.42969 l 0.17578,-0.0703 z"
       id="text4398"
       inkscape:connector-curvature="0" />
    <text
       xml:space="preserve"
       style="font-style:normal;font-variant:normal;font-weight:normal;font-stretch:normal;font-size:24.10017204px;line-height:125%;font-family:Otamaep;-inkscape-font-specification:Otamaep;letter-spacing:0px;word-spacing:0px;fill:#000000;fill-opacity:1;stroke:none;stroke-width:1px;stroke-linecap:butt;stroke-linejoin:miter;stroke-opacity:1"
       x="200.99684"
       y="402.03122"
       id="text4338"
       sodipodi:linespacing="125%"><tspan
         sodipodi:role="line"
         id="tspan4340"
         x="200.99684"
         y="402.03122">WM</tspan></text>
    <path
       id="path4388"
       d="m 208.92773,428.80854 0,0.3125 1.30078,0 6.29102,17.16016 0.38477,0 4.37304,-11.6543 4.33203,11.6543 0.36133,0 4.35352,-11.6543 2.07226,-5.81836 -0.38476,0 -4.37305,11.6543 -4.33203,-11.6543 -0.36133,0 -4.35351,11.6543 -4.29102,-11.3418 1.44727,0 0,-0.3125 z"
       style="font-style:normal;font-variant:normal;font-weight:normal;font-stretch:normal;font-size:24.10017204px;line-height:125%;font-family:Otamaep;-inkscape-font-specification:Otamaep;letter-spacing:0px;word-spacing:0px;fill:#000000;fill-opacity:1;stroke:none;stroke-width:1px;stroke-linecap:butt;stroke-linejoin:miter;stroke-opacity:1"
       inkscape:connector-curvature="0"
       sodipodi:nodetypes="ccccccccccccccccccc" />
    <path
       inkscape:connector-curvature="0"
       style="font-style:normal;font-variant:normal;font-weight:normal;font-stretch:normal;font-size:24.10017204px;line-height:125%;font-family:Otamaep;-inkscape-font-specification:Otamaep;letter-spacing:0px;word-spacing:0px;fill:#000000;fill-opacity:1;stroke:none;stroke-width:1px;stroke-linecap:butt;stroke-linejoin:miter;stroke-opacity:1"
       d="m 216.51953,446.2812 0.38477,0 4.37304,-11.6543 4.33203,11.6543 0.36133,0 4.35352,-11.6543 4.29101,11.3418 -1.44726,0 0,0.3125 6.82031,0 0,-0.3125 -1.30078,0 -6.29102,-17.16016 -0.38476,0 -4.37305,11.6543 -4.33203,-11.6543 -0.36133,0 -4.35351,11.6543 z"
       id="path4390"
       sodipodi:nodetypes="ccccccccccccccccccc" />
  </g>
</svg>
