<?xml version="1.0" standalone="no"?>
<!DOCTYPE svg PUBLIC "-//W3C//DTD SVG 20010904//EN"
 "http://www.w3.org/TR/2001/REC-SVG-20010904/DTD/svg10.dtd">
<svg version="1.0" xmlns="http://www.w3.org/2000/svg"
 width="250.000000pt" height="250.000000pt" viewBox="0 0 250.000000 250.000000"
 preserveAspectRatio="xMidYMid meet">
<metadata>
Created by potrace 1.11, written by Peter Selinger 2001-2013
</metadata>
<g transform="translate(0.000000,250.000000) scale(0.100000,-0.100000)"
fill="#000000" stroke="none">
<path d="M0 1946 c0 -11 15 -16 52 -18 l53 -3 250 -683 c218 -596 252 -682
269 -680 16 2 52 92 192 463 148 395 174 456 182 435 5 -14 80 -216 167 -450
87 -234 160 -431 162 -438 3 -6 13 -12 22 -12 14 0 54 97 186 452 92 249 171
456 174 460 6 6 118 -284 338 -870 4 -9 -10 -12 -51 -12 -43 0 -56 -3 -56 -15
0 -13 37 -15 275 -15 238 0 275 2 275 15 0 11 -13 15 -54 15 l-53 0 -84 228
c-406 1111 -416 1137 -436 1140 -16 2 -40 -53 -178 -420 -87 -233 -165 -440
-174 -460 l-16 -38 -170 460 c-148 401 -172 460 -189 458 -16 -3 -51 -88 -192
-463 -95 -253 -175 -453 -178 -445 -135 355 -326 864 -326 870 0 5 23 10 52
12 30 2 53 8 56 16 3 9 -56 12 -272 12 -234 0 -276 -2 -276 -14z"/>
</g>
</svg>
