<?xml version="1.0" encoding="UTF-8" standalone="no"?>
<!-- Created with Inkscape (http://www.inkscape.org/) -->

<svg
   xmlns:dc="http://purl.org/dc/elements/1.1/"
   xmlns:cc="http://creativecommons.org/ns#"
   xmlns:rdf="http://www.w3.org/1999/02/22-rdf-syntax-ns#"
   xmlns:svg="http://www.w3.org/2000/svg"
   xmlns="http://www.w3.org/2000/svg"
   xmlns:sodipodi="http://sodipodi.sourceforge.net/DTD/sodipodi-0.dtd"
   xmlns:inkscape="http://www.inkscape.org/namespaces/inkscape"
   width="725"
   height="497"
   id="svg2"
   version="1.1"
   inkscape:version="0.91pre2+osxmenu r12825"
   viewBox="0 0 724.99999 497.00001"
   sodipodi:docname="illustration4.svg">
  <defs
     id="defs4">
    <clipPath
       id="clipPath4784"
       clipPathUnits="userSpaceOnUse">
      <path
         inkscape:connector-curvature="0"
         id="path4786"
         d="m 0,772 1159.999,0 0,-772 L 0,0 0,772 Z" />
    </clipPath>
  </defs>
  <sodipodi:namedview
     id="base"
     pagecolor="#ffffff"
     bordercolor="#666666"
     borderopacity="1.0"
     inkscape:pageopacity="0.0"
     inkscape:pageshadow="2"
     inkscape:zoom="0.24748737"
     inkscape:cx="463.68473"
     inkscape:cy="272.86153"
     inkscape:document-units="px"
     inkscape:current-layer="layer1"
     showgrid="false"
     inkscape:window-width="1115"
     inkscape:window-height="717"
     inkscape:window-x="0"
     inkscape:window-y="23"
     inkscape:window-maximized="0"
     fit-margin-top="2"
     fit-margin-left="2"
     fit-margin-right="2"
     fit-margin-bottom="2" />
  <metadata
     id="metadata7">
    <rdf:RDF>
      <cc:Work
         rdf:about="">
        <dc:format>image/svg+xml</dc:format>
        <dc:type
           rdf:resource="http://purl.org/dc/dcmitype/StillImage" />
        <dc:title></dc:title>
      </cc:Work>
    </rdf:RDF>
  </metadata>
  <g
     inkscape:label="Layer 1"
     inkscape:groupmode="layer"
     id="layer1"
     transform="translate(852.67764,-546.40993)">
    <path
       style="fill:#231f20;fill-opacity:1;fill-rule:nonzero;stroke:none"
       d="m -317.7991,808.06644 c -4.08367,3.79077 3.60419,5.43886 0,0 z m -49.75929,120.44404 c -0.16507,0.46374 0.82671,-0.008 0,0 z m 11.15832,-138.09069 c 2.64827,-1.83773 -1.67595,-1.35885 0,0 z m -278.0419,-134.84653 c 3.37755,1.79821 1.26704,-1.91134 0,0 z m 333.38324,53.01501 c 0.27904,-8.64813 -4.52392,-2.99497 0,0 z m -16.28434,4.64689 c 8.82808,0.71195 -2.68393,-11.9737 0,0 z m -18.58758,-7.90838 c 4.59068,-12.28531 -14.38964,-16.9538 -5.24098,-1.46244 l 2.07954,1.24338 3.16144,0.21906 z m 32.07224,-5.58782 c 2.68304,-5.43949 -4.65447,-1.59159 0,0 z m -54.08293,-27.83518 c 0.78131,-13.03904 -23.53308,-20.31067 -11.4225,-4.80758 5.86015,-3.43948 22.87181,36.3611 23.48085,18.9587 -3.32248,-5.28277 -7.9478,-9.51751 -12.05835,-14.15112 z m 66.17062,-16.79232 c -0.43671,-4.29944 -7.49199,-0.30725 0,0 z m -26.02838,10.21739 c -4.42122,-1.36889 -1.1713,1.49091 0,0 z m -18.45481,-21.87215 c 3.97526,4.86695 3.62836,-3.55116 0,0 z m 35.65121,20.4752 c 2.04641,12.87172 7.14352,-1.21506 -4.17332,-8.35864 0.70232,-9.77812 -13.73304,-2.69723 0.22594,5.69588 l 3.94761,2.66276 -2.3e-4,0 z m -50.44623,5.0452 c 4.371,6.22984 21.14174,31.50738 19.95784,15.34043 -15.38772,-4.16187 -10.53425,-26.13711 -28.09135,-29.20607 -1.18335,-13.93979 0.64491,10.21851 8.13351,13.86564 z m 31.80092,-11.77598 c -5.07378,2.86652 4.16209,6.63884 0,0 z m 5.16065,-9.06289 c 3.45308,-4.06678 -1.63224,-4.41957 0,0 z m -0.92937,-5.58782 c -3.53194,-0.26334 -0.074,1.86999 0,0 z m -18.58758,3.24994 c 5.8824,11.02343 19.54844,16.60051 6.14775,0.67539 -1.84009,-5.233 -3.76408,-2.1324 -6.14775,-0.67539 z m -27.52347,5.54164 c -1.12947,-4.11584 -1.37993,0.68681 0,0 z m 99.58208,77.21926 c -11.39522,10.87975 12.99343,26.5774 2.70307,5.98554 l -1.08378,-2.5249 -1.61929,-3.46064 z m -122.20466,-79.58023 c 2.96117,-1.6894 0.6892,1.51417 0,0 z m -0.0753,15.90335 c 6.40045,-4.45765 -15.21567,-26.06183 3.78751,-11.81928 20.75234,8.78926 -22.65784,-23.60201 -9.40131,2.92884 1.31396,3.07759 2.11358,7.47565 5.6138,8.89044 z m 19.51696,-10.71961 c 9.09681,-11.64395 -23.7126,-20.1917 -5.37083,-6.06509 2.21236,1.54351 4.53817,3.35439 5.37083,6.06509 z m 14.43712,-5.11447 c 7.25593,-2.17831 -8.41706,-11.01856 0,0 z m 4.64689,5.58205 c 18.90546,13.00907 19.21691,42.40726 37.65428,54.41773 0.17498,-19.54762 -14.6047,-32.36094 -26.57146,-48.23202 -1.92144,-1.25854 -9.76229,-12.55234 -11.08282,-6.18571 z m 116.68612,220.87468 c 9.30966,-4.21188 -3.05688,-5.65729 0,0 z m -4.62957,8.36441 c 6.40374,-4.86227 -1.27055,-6.19842 0,0 z m 13.00553,-25.11054 c -6.94381,6.67398 2.1307,5.64249 0,0 z m 7.9026,-43.23633 c 3.5625,-9.9666 -7.55326,-2.97388 0,0 z m -11.61435,26.96931 c -14.83248,7.56048 1.40302,-15.10696 -10.5632,-1.31491 3.22915,23.17899 -18.46226,36.55982 -21.16639,55.06083 -8.41951,17.37336 5.71991,16.90371 5.72868,0.1217 2.61298,-13.69803 15.80702,-22.16045 19.0303,-40.05745 11.82101,-4.22952 24.44229,-52.32617 12.79745,-34.40218 -2.61754,6.48541 -7.42673,13.2627 -5.82684,20.59201 z m -39.5188,74.39649 c -3.69827,-1.90854 2.08577,-5.94055 0,0 z m 4.17354,-6.5172 c -8.67777,3.30996 -1.51133,-5.85595 -7.44758,6.27277 -14.98983,13.07454 -0.63791,15.19894 7.85453,3.33757 0.67222,-3.23978 -0.80279,-6.36478 -0.40695,-9.61034 z m 21.86061,-21.38726 c 3.78183,1.29253 0.69442,-2.68407 0,0 z m -6.51142,14.88738 c 9.01132,-6.87072 6.69642,-20.67539 -1.01281,-3.09345 l -0.0619,1.7585 1.07474,1.33495 0,0 z m -25.09901,11.6259 c 3.37131,-6.24715 -5.09013,0.48841 0,0 z m 24.18695,-113.92684 c 16.44826,-5.18437 2.68591,-43.72472 0.17606,-14.04243 -0.80199,4.58119 -1.77656,9.50665 -0.17606,14.04243 z m 3.71174,-106.48027 c 3.54037,-8.97236 -11.8778,-15.67301 -3.23623,-1.36376 l 3.23623,1.36376 z m 7.90261,4.64689 c 2.04363,-7.04677 -7.45196,0.86967 0,0 z m -27.92178,-25.11055 c -8.64335,-18.27559 -19.49166,-8.25303 0,0 z m 19.92104,52.92265 c 2.10619,10.79554 -1.3932,40.95611 4.43459,40.51088 4.08349,-20.02386 4.36508,-41.41087 -3.86239,-60.31935 -11.62068,-10.42722 -12.06402,-28.86578 -23.72586,-29.85846 9.22682,15.79719 18.64327,31.75388 23.15366,49.66693 z m -14.26395,-6.77696 c 4.2868,22.33925 8.68601,40.28987 2.26861,60.80216 13.92846,-8.89745 4.92081,-30.58224 6.97106,-47.16824 -1.33026,-22.5728 -17.45995,-38.21676 -28.22555,-56.61625 0.29858,-12.37402 -24.32672,-30.00804 -12.40129,-8.89883 12.76051,16.04999 23.61028,32.5088 31.38717,51.88116 z m 39.91711,51.51991 c -5.24708,19.50842 -12.00164,38.19298 -13.54444,58.66878 5.35269,-15.95245 21.89057,-36.33834 17.41276,-57.13202 -0.59246,-10.30047 -1.67905,-35.01792 -4.40441,-12.39779 0.38326,3.59999 1.04383,7.23465 0.53609,10.86103 z m -13.02285,-59.53797 c 1.52293,-16.47759 -12.51876,-2.00649 0,0 z m 4.66421,42.79184 c -11.12375,1.69974 1.81231,35.03927 1.81643,13.97479 -0.85852,-4.54331 -3.44192,-9.30235 -1.81643,-13.97479 z m -4.19086,-36.75954 c 2.86992,22.35714 4.28971,-7.99062 -1.49798,-1.2981 l 1.49798,1.2981 z m 3.25571,26.05725 c -1.42953,19.57713 6.94937,-25.35287 -3.86276,-10.08712 0.42628,3.61216 1.95205,7.02901 3.86276,10.08712 z m -298.96904,-94.39834 c -3.53158,-0.271 -0.0722,1.90298 0,0 z m 224.11077,292.9333 c 3.64806,-8.07863 -2.84427,-1.37459 0,0 z m 57.64458,-139.47611 c -11.01066,-4.47606 1.14067,11.30659 0,0 z m -498.42823,97.63674 c 0.96355,-0.65428 -1.19772,-0.68937 0,0 z m 472.41139,-13.94069 c 1.15628,-5.27974 -2.14168,-3.63045 0,0 z m -311.53819,59.50912 c -9.25747,-10.26115 -39.25198,28.87723 -14.20131,15.83254 5.76277,-4.10803 11.28967,-9.25686 14.20131,-15.83254 z M -710.6963,716.49087 c -1.75318,-1.53477 -1.76791,1.98735 0,0 z m -47.20838,119.47426 c -3.63244,-2.36823 3.43706,-1.20686 0,0 z m 25.69011,-48.3508 c 7.07308,-1.96401 -4.43962,6.27162 0,0 z m -25.44189,53.94439 c 16.30337,-13.94936 18.10157,-37.739 33.26005,-53.54825 3.4027,-8.91631 -8.37936,-22.34261 -12.45094,-6.32453 0.12636,17.44955 -13.58304,35.38648 -22.83275,52.43928 -1.8473,8.3524 -23.31687,41.26237 -3.28533,23.28109 2.35144,-3.7425 9.92947,-11.4156 5.30897,-15.84759 z m 437.51348,101.82183 c 1.65048,-5.45064 -2.65179,-4.39171 0,0 z m -236.80981,11.42385 c -11.69495,-0.86784 -21.8271,22.78037 -4.51021,9.94771 2.16344,-1.29322 13.11816,-9.34359 4.51021,-9.94771 z m 291.69512,-166.72249 c 1.5934,-2.14683 -1.86584,-1.60157 0,0 z m -441.72227,-79.97277 c -2.49483,-8.25694 -4.35527,2.71733 0,0 z M -336.41,643.47402 c 0.42872,0.12954 -0.16381,-0.35803 0,0 z m -382.18715,269.69883 c -3.59448,-10.22361 -6.84433,16.49362 0,0 z m 405.44472,-195.76992 c 1.04361,10.32229 6.98772,-0.24642 0,0 z m -188.76496,-22.77844 c 9.81255,7.58311 5.05837,-11.48583 0,0 z m 186.90042,50.2211 c -6.97128,-2.37886 -1.32132,8.33452 0,0 z m -11.16409,13.01707 c -1.72223,3.16737 1.1269,1.91374 0,0 z m -140.39047,164.62706 c 10.40201,-8.72982 -4.51434,11.09694 -2.58056,2.98802 l 2.58056,-2.98802 z m -12.56913,-2.82277 c -2.31653,6.70723 -5.57187,3.34782 0,0 z m -30.14536,18.42018 c -8.18034,8.71306 -34.37869,24.42386 -15.0565,6.13827 9.42072,-7.02301 26.45444,-27.11362 33.06836,-23.87098 -4.51159,7.24677 -11.95575,11.92306 -18.01186,17.73271 z m -11.23627,-5.85336 c 0.79996,-11.41057 7.32249,1.0784 0,0 z m 18.56911,-21.43921 c 19.7941,-19.18938 5.40655,9.25497 -8.34303,10.73692 0.73284,-4.70928 5.10622,-7.73654 8.34303,-10.73692 z m -29.74013,-0.88897 c 4.74373,-16.77713 15.85814,-2.25832 0,0 z m -27.42187,7.44657 c 6.0448,-8.55303 21.54922,-14.03361 6.44876,-2.16071 l -2.31446,1.22646 -4.1343,0.93425 z m 23.24371,-0.92937 c -2.33153,1.11812 -1.84245,-3.31677 0,0 z m -9.7706,16.26701 c -1.96012,3.43004 -3.5288,-0.83606 0,0 z m -18.91832,-21.71052 c 0.1932,-2.94215 1.93856,2.81221 0,0 z m -71.27069,28.70107 c 4.47436,-11.85093 28.08001,-23.34779 27.49336,-31.0403 9.39115,-6.80756 14.31401,-9.44288 5.70731,2.76009 -9.7351,10.77064 -20.83456,20.62991 -33.20067,28.28021 z m 46.02677,-25.59544 c -0.3338,-2.12347 3.93712,-1.33089 0,0 z m -90.45741,20.26161 c 7.68193,-9.16159 1.0608,8.2444 0,0 z m 18.83289,-7.23299 c 9.62448,-6.71611 3.65611,9.42515 0,0 z m -9.00802,-4.28323 c -1.39446,-2.74252 2.20951,-0.55125 0,0 z m 53.19049,-19.42459 c 2.23437,5.07147 -4.1272,2.08556 0,0 z m 6.03632,-7.90261 c 1.30755,3.97001 9.69412,-0.9957 -1.73799,6.06135 -5.81381,3.03414 -1.14138,-6.90495 1.73799,-6.06135 z m 40.46897,-13.50197 c -5.46196,20.28951 -21.62986,7.6963 0,0 z m -49.76161,10.70806 c 2.42767,1.9486 -1.30136,2.82556 0,0 z m -3.5218,0.62344 c -0.30548,-5.15223 4.22073,1.76634 0,0 z m 23.23447,-3.06522 c 15.19065,-15.13823 -5.54709,12.15991 0,0 z m -16.45635,-5.00479 c 17.62226,-11.38891 2.49804,16.18479 0,0 z m -4.6475,-3.26149 c -0.32546,6.17947 -6.29127,1.29886 0,0 z m -63.93088,-1.69713 c 13.33934,-11.1165 -1.5853,12.38297 0,0 z m 20.70264,-5.98035 c 7.96605,-8.03037 26.33121,-25.90539 33.88936,-19.59006 -11.10509,5.59902 -26.99595,24.61024 -36.48733,23.48992 l 2.59771,-3.90008 2.6e-4,2.2e-4 z m -41.85784,-3.47507 c 2.97281,4.90507 -7.28444,7.1815 0,0 z m 50.68581,-10.23471 c -0.43796,3.95326 -4.38208,-1.51327 0,0 z m -19.98744,9.31111 c 14.49649,-24.69619 7.21596,5.83088 0,0 z m -13.49329,-4.19087 c 2.28706,0.0494 1.55718,3.5693 0,0 z m -14.04574,-1.12564 c -3.98011,-10.17729 7.24513,1.03119 0,0 z m 48.91534,-17.46771 c 5.40021,16.27416 -24.44571,13.43658 -1.56788,3.32309 l 1.23775,-1.57722 0.33013,-1.74587 z m -44.64713,10.23472 c 5.75075,-12.84763 14.42603,-40.55346 26.03933,-41.57383 -11.59366,12.39211 -7.30194,37.43589 -26.03933,41.57383 z m -1.38194,-5.13179 c 2.2181,0.31805 0.44883,3.24718 0,0 z m -13.48466,-2.78237 c 7.40298,-10.90282 7.57498,-14.48814 19.52975,-26.50173 -0.0508,12.83599 -10.8375,20.39927 -11.45872,33.68105 -3.99506,3.34695 -0.98814,-9.51866 -8.07103,-7.17932 z m -8.36787,-9.75559 c 4.13131,-5.83608 20.67003,-31.54603 14.47212,-14.49457 -11.37498,1.33261 -4.09621,22.87316 -14.47212,14.49457 z m 6.03632,-15.8283 c 3.26225,-1.08552 0.0352,3.0318 0,0 z m 25.57757,-8.35287 c 8.0208,3.15923 -10.31349,9.77212 0,0 z m -36.27926,9.29957 c -9.43349,-16.94823 21.05618,-29.40143 16.88643,-11.19058 -8.58407,-2.09347 -32.47025,37.54849 -16.88643,11.19058 z m 27.71974,-33.17479 c 11.99934,-12.35757 32.8793,-33.04844 50.39658,-22.16078 -24.99323,-6.84683 -39.09176,33.5335 -55.57392,29.45853 0.83393,-2.95448 3.03185,-5.23614 5.17734,-7.29775 z m -6.78274,3.41157 c 2.8981,0.7956 0.77809,2.88869 0,0 z m -11.62649,2.78236 c 3.61164,-6.91666 4.20828,2.28059 0,0 z m 21.85197,-12.5495 c 0.0651,3.25322 -2.05774,-0.48623 0,0 z m 12.55352,-12.5495 c 0.30123,-11.16417 4.04796,-0.32304 0,0 z m -25.77841,18.78385 c 9.79215,-14.13348 15.90097,-33.63544 26.70943,-45.29712 0.95279,19.7186 -13.10556,35.6899 -26.70943,45.29712 z m 19.73978,-41.10049 c -0.5288,3.50488 -2.75494,-0.47834 0,0 z m 22.36859,-9.43233 c 7.55246,2.73292 10.62925,13.33554 -0.28784,5.83243 -2.18062,-1.32285 -5.38399,-8.59565 0.28784,-5.83243 z m 4.58857,12.20892 c 6.19231,5.47325 -16.42594,16.07612 -10.2168,0 l 5.12593,0.75765 5.09087,-0.75765 z m 13.95745,2.34366 c 10.79428,11.1745 -16.65589,-1.62528 0,0 z m 13.44424,2.96708 c 10.41723,3.48734 -9.68606,8.15002 -2.18124,-0.98494 l 2.18124,0.98494 z m 32.70028,2.32633 c -20.67238,-15.04348 38.30906,6.56896 9.89651,4.43042 -3.42211,-1.20972 -6.49576,-3.17785 -9.89651,-4.43042 z m 26.39607,-5.29341 c 11.85241,-2.15871 -0.25906,11.48866 0,0 z m 24.18348,2.31478 c 3.3243,-7.52482 15.51738,10.00788 0.80448,1.05746 l -0.80448,-1.05746 z m 2.78237,-11.63166 c 13.7427,-2.54965 40.85789,28.06223 33.03687,35.28537 -8.77291,-13.72531 -17.48261,-28.23605 -33.03687,-35.28537 z m -60.92279,2.33788 c 8.0718,-4.72994 24.19103,0.65849 5.05828,2.04498 l -2.70943,-0.58473 -2.34885,-1.46028 0,3e-5 z m -16.29126,-6.31516 c -9.55611,4.34236 -29.19655,-17.84504 -9.26308,-9.96225 0.61348,8.98675 34.37516,7.74938 20.73731,14.33776 -3.97822,-0.91128 -8.22174,-1.6818 -11.47423,-4.37551 z m -30.63949,-21.17368 c 1.61716,-5.21078 14.85283,0.16455 7.41365,8.88948 -2.64912,-2.52967 -6.85062,-4.87324 -7.41365,-8.88948 z m -4.73348,-0.58303 c -3.36621,-2.31746 3.79421,-0.269 0,0 z m -5.04866,-6.34979 c 9.36095,1.14385 -1.30493,9.64913 0,0 z m 24.17941,9.76714 c 2.42821,-3.62391 2.01895,1.28778 0,0 z m 4.17817,-7.42349 c 22.8706,5.23362 -4.49595,15.70737 0,0 z m 21.06113,11.99534 c 6.97353,16.67008 -16.49243,-9.98366 0,0 z m 37.51689,-1.31037 c 8.46026,-3.99388 13.09151,5.42454 22.79691,8.83199 -7.28587,4.82981 -15.45132,-7.18091 -22.79691,-8.83199 z m 12.09518,-6.51719 c 14.55086,0.17816 15.06393,14.68362 0,0 z m -28.66412,-2.74196 c 6.56939,-9.19839 14.82596,14.33205 1.14149,2.31263 l -1.12116,-1.3276 -0.0201,-0.98503 -1.9e-4,0 z m -20.49021,-6.55183 c -7.40743,-1.3561 -36.50091,-21.93195 -22.95033,-18.88798 8.66416,12.0494 29.40525,6.7568 30.52486,20.45746 -2.62475,0.3028 -5.19205,-0.59691 -7.57453,-1.56948 z m 70.0821,19.51695 c -16.32759,-0.711 -6.78684,-8.43133 0,0 z m -48.35426,13.02863 c -0.89812,-5.97776 2.69191,0.57221 0,0 z m 60.08406,-1.80681 c -15.31958,-12.71356 26.8472,5.17497 2.34945,1.40711 l -2.34955,-1.40736 10e-5,2.5e-4 z m -0.91322,-16.47483 c 14.115,3.5428 33.29376,20.37388 44.85016,33.80738 7.63132,10.37628 14.56634,30.9987 0.59072,38.88645 7.30284,-22.22547 -8.86807,-44.21289 -24.53089,-58.43542 -5.8627,-5.62784 -17.86819,-7.25706 -20.90999,-14.25841 z m -4.77158,-15.19909 c 13.48897,0.62333 38.00272,25.04805 11.98985,9.74837 -4.15387,-2.85545 -9.39635,-5.26892 -11.98985,-9.74837 z m -30.2198,-19.06093 c 8.00994,7.45934 32.41814,13.76521 25.53828,18.44646 -8.87667,-4.49682 -22.17934,-8.2135 -25.53828,-18.44646 z m 68.81269,42.31849 c -17.71779,-2.75633 -10.08337,-13.54606 0,0 z M -550.745,691.84213 c 18.00806,11.19677 37.78144,19.75626 54.38307,32.94026 21.93604,20.42144 -19.38989,-9.10292 -27.44387,-15.72097 -9.3733,-3.75058 -22.42781,-7.36841 -26.9392,-17.21929 z m -17.65589,-22.0511 c -11.51745,-16.88266 16.57614,7.89757 23.22801,11.81638 27.76331,15.69891 -17.62539,0.60475 -23.2281,-11.81638 l 9e-5,0 z m 46.94521,27.63314 c -18.75418,-2.27143 -13.1161,-14.87102 0,0 z m 37.74432,23.754 c 10.13257,16.53835 -14.66416,-7.25311 -21.24492,-11.70143 -10.8841,-6.18604 -15.6019,-14.87091 -0.29059,-4.36709 7.71597,4.54498 15.40083,9.45998 21.53551,16.06852 z m -0.87687,13.69247 c 10.52086,7.2741 21.72087,31.5446 4.47603,11.47819 -0.4498,-0.61668 -11.77783,-15.52119 -4.47603,-11.47819 z m 9.19972,26.18424 c 11.9697,11.15432 6.55936,50.24278 -4.15106,48.31038 7.79908,-21.98753 8.10456,-46.87361 -13.03546,-61.84536 -10.05092,-7.36934 -12.14143,-18.54366 1.60251,-6.64365 6.59001,5.4778 11.7811,12.53167 15.58401,20.17863 z m -18.03688,53.29786 c 1.75976,12.14889 -17.22401,14.21777 -4.13073,1.44968 -1.36237,-3.00305 4.52976,-4.43871 4.13073,-1.44968 z m 13.82925,6.52297 c -6.04414,7.35733 -2.08624,-6.84609 0,0 z m -5.14333,10.92742 c -16.0491,18.50133 -2.69104,-13.5819 0,0 l 0,0 z m 30.7209,-8.84931 c 12.01863,-18.53165 -10.44313,27.2915 -1.4475,2.62299 l 1.44727,-2.62299 2.3e-4,0 z m 20.4498,-27.89291 c 8.33501,-20.30762 -11.146,-44.27997 -20.2062,-62.98418 -11.2407,-24.95844 10.19807,-2.33475 10.94432,10.38444 10.66806,16.4722 17.60627,34.30621 15.63499,53.80787 4.92447,11.22267 -19.48264,38.30967 -8.05834,15.63456 1.07948,-4.26168 7.90169,-13.8172 1.68523,-16.84269 z m -8.41581,-87.14226 c -11.76216,-3.58717 -25.90169,-25.83102 -6.18917,-12.6474 14.3947,11.54856 25.87534,26.42701 36.91637,40.02223 8.47257,13.13222 21.98117,31.11474 13.0178,46.28278 -0.21043,-21.15331 -12.62915,-39.86845 -25.73274,-54.40488 -6.17478,-6.25758 -11.65202,-13.17415 -18.01226,-19.25273 z m -20.89137,-17.94105 c 4.23841,0.2412 -0.46858,5.41995 0,0 z m 75.85232,83.24002 c 4.73654,17.81617 -8.05375,1.97774 -4.70236,-9.29979 1.27701,3.24869 3.28109,6.12884 4.70236,9.29979 z m -3.76946,14.40826 c 1.26097,12.93162 -6.76733,24.72608 -6.03522,5.23059 -0.43313,-9.42348 -2.6537,-7.4468 6.03522,-5.23059 z m -9.74982,37.66005 c -6.05497,-8.98216 10.34877,-27.77383 3.72403,-8.57849 l -1.63769,4.39246 -2.08632,4.18626 -2e-5,-2.3e-4 z m 7.4408,-5.33383 c -0.38645,1.7649 -0.24127,-1.77927 0,0 z m 0.89474,9.98072 c 1.36139,-10.54076 6.56698,1.9998 0,0 z m 14.30436,-4.49681 c 2.49511,-10.32695 3.5389,-30.77343 5.78985,-29.5614 9.86661,-8.11947 -16.9586,-54.23107 4.14108,-31.85071 9.84087,23.25499 -5.43118,46.98413 -10.27852,69.16535 -0.59316,-2.55267 -0.36095,-5.25009 0.34759,-7.75324 z m 19.6324,-54.55627 c -0.3649,9.77585 2.58619,18.09518 8.36017,18.18639 -4.21234,10.22579 -9.46154,40.60755 -14.53315,35.90823 10.17449,-18.10728 3.48906,-35.67637 6.17298,-54.09462 z m -1.3854,-25.57235 c -13.45754,-3.25275 -7.96972,-40.10551 -3.92461,-11.6295 7.90408,18.54786 10.10143,10.00371 3.46857,-5.11664 7.1581,5.14159 19.16938,40.37379 6.70697,19.3409 -5.65366,3.56405 13.30852,26.14927 3.06017,36.93559 -0.74882,-13.63464 -5.63256,-26.51585 -9.3111,-39.53035 z m -2.30902,-17.20217 c -2.59009,-1.0226 -0.55191,-3.70474 0,0 z m 19.52273,80.44034 c 0.87661,12.39522 -11.78212,39.54904 -18.35294,38.3773 3.7581,-12.62788 10.36847,-31.30541 18.35294,-38.3773 z m 0.93515,27.89869 c -1.80035,-3.77364 4.23362,-4.4385 0,0 z m 11.61435,-7.90261 c 16.94051,-6.16689 -1.62516,18.48173 0,0 z m 6.99055,-1.86453 c -4.92626,-14.78878 9.99287,-36.87777 6.71297,-11.73268 -0.96006,6.89343 -3.2743,12.86329 -6.71297,11.73268 z m 18.45481,-32.8573 c 4.42099,-18.20976 0.0578,-37.22623 -3.34449,-55.21763 9.74738,-9.85026 9.89133,25.26462 11.34666,34.62433 -3.77631,21.40847 -5.38855,43.71039 -12.39927,64.44332 -13.29483,22.75477 -2.23696,-18.71031 1.70565,-25.67783 1.32642,-5.97966 2.45773,-12.03867 2.69145,-18.17219 z m 15.48195,-61.9913 c 10.0581,17.6215 5.9924,40.87404 5.10931,60.76713 0.66962,10.34518 -8.48276,27.12581 -8.89417,7.03415 1.57088,-24.33494 7.51671,-38.37006 -4.13989,-60.98896 -1.05917,-5.87553 12.84436,8.21542 7.92475,-6.81232 z m -12.55528,101.83915 c -0.9423,-5.57059 3.59274,0.24813 0,0 z m 9.83064,-14.9047 c -0.8868,12.07985 -11.09182,29.37902 -6.40274,10.30623 -0.26762,-5.71184 7.97964,-33.06107 6.40274,-10.30623 z m -12.62455,32.55135 c -8.19566,-2.41727 11.43369,-20.41576 0.85758,-3.08443 l -0.85758,3.08443 0,0 z m 39.99216,-0.4558 c 2.76396,10.3344 -15.74497,28.98416 -10.05577,9.99227 3.2763,-3.00686 4.60756,-11.67516 10.05577,-9.99227 z m -27.23484,20.30202 c -2.77573,-1.02657 1.38903,-2.06483 0,0 z m -20.68301,9.5016 c -15.69109,17.78702 11.80621,-23.44519 3.86567,-3.85967 l -1.91189,1.97719 -1.95355,1.88248 -2.3e-4,0 z m 11.63744,-0.98133 c 0.21244,1.89864 -0.6931,0.62346 0,0 z m 21.38726,1.4085 c -13.23454,-6.10787 8.60801,-13.87202 0,0 z m -19.99608,2.32056 c -6.13943,10.17997 -5.48996,-5.25104 0,0 z m 12.09347,4.19087 c -3.94806,-1.71248 2.45583,-5.33617 0,0 z m -20.74074,5.89953 c -7.91201,5.74632 -22.5848,31.2317 -24.84371,24.49135 2.36054,-7.33943 29.9497,-36.37319 24.84371,-24.49135 z m 25.34723,5.52432 c -20.28045,26.02966 4.58904,-18.19797 0,0 z m -31.11977,17.39844 c -3.1179,-14.18286 29.47196,-29.08832 8.73656,-10.44429 -5.22624,1.0578 -3.81808,8.77102 -8.73656,10.44429 z m -21.84329,3.71751 c 2.03908,5.02431 -4.28774,0.72546 0,0 z m -4.64689,11.62012 c -7.8166,-6.86222 8.40426,-12.32486 0,0 z m -16.27856,1.39696 c -4.9879,-9.84522 18.76047,-19.73254 2.5952,-3.63706 l -2.5952,3.63706 z m 12.0877,0.9236 c -1.33763,-4.72966 4.69533,0.4297 0,0 z m -18.12578,3.73484 c -3.40221,-6.86265 8.05838,-6.61237 0,0 z m 16.54987,-1.44891 c -1.17774,7.41887 -4.03533,-2.24853 0,0 z m 3.59629,-22.6399 c 2.17619,16.52375 -10.01441,-3.03259 0,0 z m 2.17048,-1.03328 c -3.00569,-8.77503 17.74308,-11.46166 0,0 z m -27.43688,6.97322 c 9.53152,-1.90784 34.74209,-37.27863 18.65252,-11.382 -8.42129,7.77091 -29.64371,39.12036 -19.70177,14.08855 l 1.04925,-2.70678 0,2.3e-4 z m 1.4085,-11.13523 c 0.24208,12.99285 -27.56797,27.52534 -10.59478,7.66377 2.9031,-3.17812 6.12527,-6.85107 10.59478,-7.66377 z m -28.43553,12.16275 c 9.92091,-9.60439 -4.7002,13.58411 2e-5,0.002 l -2e-5,-0.002 z m -16.74037,0.2309 c 3.75254,-8.05314 30.02666,-29.13809 13.33612,-9.54268 -1.10268,0.83703 -15.4139,15.91148 -13.33612,9.54268 z m -18.98704,2.93245 c 0.81088,-11.56447 28.25211,-22.2835 10.14113,-6.60667 -3.04312,2.63926 -6.30726,5.22532 -10.14113,6.60667 z m -21.8612,-13.02862 c -7.77219,14.13767 -17.3676,8.72128 0,0 z m -23.71013,3.72906 c 6.57356,-2.94577 18.95948,-11.73927 7.2825,-0.55971 -2.41212,-0.70635 -14.15841,11.04001 -7.2825,0.55971 z m 17.19815,-26.50173 c -0.99063,10.23291 -28.37886,30.52002 -25.68566,23.711 6.2486,-10.05189 16.03488,-17.20266 25.68566,-23.711 z m -39.03913,8.37595 c -4.67498,15.21017 -6.1617,-4.92814 0,0 z m -90.89728,1.47777 c -2.2917,13.97512 -4.82742,-9.00749 0,0 z m 26.22465,-2.36674 c -18.98012,3.29883 23.38325,-17.56726 3.31425,-1.99441 l -3.31425,1.99441 z m 42.3335,-21.42767 c -4.01371,13.23728 -23.82487,13.3075 -3.72862,3.18825 l 2.05135,-1.36792 1.67727,-1.82033 z m -17.65358,1.39118 c -6.82335,12.26722 -9.11624,0.0475 0,0 z m -85.57389,-2.3321 c 1.59071,10.94117 -12.77639,4.70898 0,0 z m -17.77711,2.12429 c -4.80231,9.88739 -1.95892,-10.30665 0,0 z m 62.67246,-12.53218 c 11.05667,-12.02415 18.86877,-9.47931 4.35467,1.77752 -7.08403,8.17878 -38.94211,20.06661 -19.17687,4.47991 5.01986,-1.81104 10.71283,-2.53393 14.8222,-6.25743 z m -54.20124,2.68423 c 1.99154,3.02428 -3.48786,1.44402 0,0 z m 7.44829,-6.22857 c -5.37187,13.71816 -10.61139,0.88067 0,0 z m 33.48073,6.51142 c -0.78921,2.03685 -1.94718,-0.33715 0,0 z m 2.32001,-1.85875 c -3.06324,0.15142 1.60049,-2.53722 0,0 z m 5.69403,-22.10883 c 16.4006,-5.03064 26.33858,-25.32209 37.83689,-29.53953 -1.35184,11.25907 -20.28893,24.21632 -16.50576,26.12457 -18.91023,-7.84221 -31.95386,38.57387 -41.4294,22.2623 8.55509,-4.00763 13.63189,-12.37135 20.09827,-18.84734 z m 8.24836,-31.35644 c 1.17784,4.2033 -4.43778,-0.22608 0,0 z m -14.39787,22.77845 c -2.53259,-3.78592 -0.86395,-26.5296 9.35601,-20.71455 -6.28734,7.95815 -16.44713,19.48285 -0.0524,11.88256 -6.76977,-5.6684 14.1469,-6.77644 10.21508,-17.66974 12.96795,3.978 -7.38662,24.2443 -7.46412,25.34264 -6.99942,4.95918 -30.3408,24.18312 -30.67382,18.15779 5.08035,-6.73386 11.90382,-11.99342 18.61923,-16.9987 z m -7.90316,-6.96746 c -5.89201,23.79338 -14.68021,-3.54283 0,0 z m -72.08,-41.38334 c -4.86879,7.25233 -28.17006,34.18337 -21.08397,17.10314 5.74787,-6.30265 11.52446,-17.08969 21.08397,-17.10314 z m 14.42443,5.10293 c 0.0168,-3.79359 3.35136,-0.0697 0,0 z m 30.21347,-21.84329 c 4.7859,-16.10961 9.41657,7.60162 0,0 z m 103.21763,21.39303 c -9.17872,-3.99748 -24.28705,-35.7474 -9.56048,-14.5468 8.46254,-0.68609 5.40893,10.22203 9.56048,14.5468 z m 16.47196,3.11717 c 7.38216,-12.76115 -17.49656,-32.93891 -9.94424,-41.81223 9.06424,9.39791 24.90052,30.0512 11.13672,42.00445 l -1.19202,-0.19338 -4.6e-4,0.001 z m -37.38356,-4.05809 c 10.09049,1.51233 2.98968,12.57462 0,0 z m -0.47391,-0.92361 c 0.0711,3.61778 -2.32703,-0.69697 0,0 z m -11.15023,3.71752 c -9.68419,-5.62419 1.79534,-9.57602 0,0 z m 3.72268,-14.88161 c 19.31658,-6.54529 2.72278,22.86937 0,0 z m -22.33913,-0.4618 c -18.22706,-5.18867 3.79688,-15.23115 0,0 z m 16.05515,-4.20819 c -19.52743,-10.53525 17.84805,-0.58331 1.53652,2.05422 l -1.53652,-2.05422 0,0 z m -49.52433,6.53452 c -21.83565,-21.84337 25.6652,-4.40291 11.64563,0.95544 -2.86707,-0.39417 -10.99164,-6.17852 -11.64563,-0.95544 z m 29.75744,23.24602 c 1.80843,-3.82672 3.05789,0.95005 0,0 z m 11.63569,-5.57628 c -5.4938,19.66559 -9.13006,-23.45564 -2.39381,-3.54301 -0.64371,2.18718 1.76312,2.20525 2.39381,3.54301 z m 28.35531,0.46181 c -1.93262,-1.47588 1.80428,-2.69492 0,0 z m 13.93953,2.817 c -6.57557,7.83596 -1.9379,-9.64295 0,0 z m 4.65669,11.59703 c 1.66422,5.44133 -4.52875,0.50076 0,0 z m -13.94932,-2.80546 c 9.65824,-2.11456 -4.81268,22.79809 -3.04782,5.75955 1.16582,-1.55074 3.87403,-3.39118 3.04782,-5.75955 z m 8.85507,-2.77659 c 1.75263,3.02049 -3.57911,1.57524 0,0 z m -33.28908,1.10256 c 1.55415,0.0532 0.33044,-0.19048 0,0 z m -38.51554,0.19026 c -1.37136,-2.70313 2.20006,-0.55786 0,0 z m -29.10861,-11.98957 c 24.23881,10.28622 -11.59132,23.78308 -17.38243,33.953 -19.39391,8.22766 -9.94709,-9.30302 3.43367,-6.51611 4.54058,-10.27566 13.51886,-14.84015 13.94876,-27.43689 z m 7.44542,-3.71751 c 10.81614,1.08447 1.12075,7.03232 0,0 z m -43.24902,4.18509 c -5.25648,-5.92367 13.66194,-6.5161 0,0 z m -17.6715,9.77291 c 1.60601,-12.96606 20.83497,-5.53691 3.27396,-1.47678 l -3.27396,1.47678 z m -5.11387,3.71174 c 0.70767,-6.38234 4.49184,0.15107 0,0 z m 38.70544,-11.52199 c -7.9194,6.51753 -27.24086,17.4881 -13.31516,0.82692 7.83908,-12.19365 40.48937,-4.0522 15.56345,-1.20767 l -2.25014,0.38098 0.002,-2.3e-4 z m 43.118,21.75093 c 0.36812,3.18479 -3.22134,-0.747 0,0 z m 25.57522,-10.70806 c -3.20359,1.47483 -1.13006,0.63072 0,0 z m -32.54729,3.74061 c -0.9682,31.26048 -2.27569,-31.01227 7.97969,-7.85066 3.2195,2.11139 -4.47097,9.94233 -7.97969,7.85066 z m 56.73308,-4.65267 c 8.58259,-11.43546 13.09205,6.43881 0,0 z m 13.50257,13.94068 c -5.73743,3.87391 -0.87343,-2.92898 0,0 z m -12.56913,23.72514 c -16.70469,-4.44054 23.09243,-29.31773 7.04669,-6.89241 -1.87527,2.69908 -3.77222,5.671 -7.04669,6.89241 z m -24.64357,2.32056 c 6.97172,-3.55568 2.68815,3.69681 0,0 z m -0.47566,5.10293 c 3.6114,10.9599 -18.49042,0.56285 -3.37059,2.35087 l 1.79268,-0.75007 1.57805,-1.6008 -1.4e-4,0 z m 63.72076,-14.87006 c 1.82461,1.31567 -1.87906,2.77024 0,0 z m 27.42187,7.90838 c 6.22624,-14.93975 15.55729,-13.88357 2.85899,-1.0727 l -1.55698,1.04495 -1.30201,0.0277 z m 22.77673,-8.37019 c -2.06335,-1.42237 2.40069,-2.54528 0,0 z m 6.99055,7.90838 c 2.76505,-11.03863 21.84747,-29.2142 8.78481,-8.89837 -2.22219,3.55273 -5.05249,6.86891 -8.78481,8.89837 z m 40.44587,-37.19824 c -0.989,-4.45632 3.23624,0.0154 0,0 z m -17.6715,27.88714 c -3.94401,-8.78136 8.1596,-14.35259 0,0 z m 6.51434,20.45788 c 3.41012,-9.96455 31.46124,-44.81593 18.50339,-19.74953 -5.25646,7.31876 -11.27307,14.3194 -18.50339,19.74953 z m 31.88058,-20.30203 c -8.65405,6.4035 5.5056,-13.73704 0,0 z m 14.1485,-1.55281 c -1.20415,10.35096 -17.39572,11.94809 0,0 z m 4.2659,11.8568 c 5.16785,-17.89454 15.60926,-10.44443 4.35531,0.64995 -5.92744,4.96427 -13.9091,13.2205 -4.35531,-0.64995 z m 33.08243,-4.27745 c -2.78777,9.09582 -17.15257,25.77422 -7.72631,6.69998 1.07773,-1.08421 11.94451,-19.05931 7.72631,-6.69998 z m 13.32879,-2.92091 c 4.61741,7.21198 -11.39812,15.32535 -1.69431,2.46758 l 1.69433,-2.46758 -2e-5,0 z m -6.97323,12.54373 c -0.62663,-4.86007 2.57381,0.79112 0,0 z m 15.04902,4.03501 c -6.89085,10.92094 -13.17653,14.75051 -3.12329,0.77345 0.79918,-2.78133 5.60014,-9.66673 3.12329,-0.77345 z m -36.89231,27.60428 c -7.8827,7.05629 8.79437,-12.67141 0,0 z m 24.16963,7.90261 c -0.5491,-12.09505 12.32078,-13.07803 0,0 z m 12.5495,-1.05061 c 8.58508,-4.22618 -17.53446,22.18356 -4.66277,4.66638 l 2.23668,-2.5245 2.42609,-2.14188 0,0 z m -16.74037,3.8272 c -2.891,8.93664 -5.37316,0.24041 0,0 z m -26.5075,8.37018 c 6.29342,-3.08533 14.14001,-13.88298 4.27898,1.54713 0.0992,6.43018 -6.85651,1.38304 -4.27898,-1.54713 z m -10.20585,-3.24994 c 3.37111,11.59127 -26.90149,23.96795 -7.57645,7.51854 2.52872,-2.50224 5.0297,-5.0435 7.57645,-7.51854 z m -16.74036,1.39118 c 2.24617,0.35743 0.41869,3.19917 0,0 z m -20.93123,4.18509 c 8.63302,-14.62984 10.08811,1.8246 0,0 z m -19.19776,2.55724 c 2.8229,-8.97894 22.57877,-20.26867 8.03676,-3.95972 -0.23089,-1.00889 -11.43548,11.72712 -8.03676,3.95972 z m -8.24374,-5.8014 c -3.26676,11.75196 -18.30283,8.98379 0,0 z m -4.6475,-11.73558 c -1.99596,8.76912 -26.71586,22.41064 -9.48916,5.55117 1.2712,-2.0141 10.18437,-7.55243 9.48916,-5.55117 z m 4.89341,-4.46794 c 13.68748,-13.49684 -9.93368,13.63305 0,0 z m -18.83524,0.84856 c 2.64675,1.51011 -2.73705,3.55329 0,0 z m 0,-9.76714 c -2.14005,11.10848 -29.05156,23.01378 -10.45661,6.23651 3.17663,-2.35084 6.32706,-5.72646 10.45661,-6.23651 z m -59.41676,8.54914 c -5.76622,10.82039 -4.68652,-2.68411 0,0 z m 37.10012,-3.8907 c -2.80051,10.76417 -21.09241,14.37213 -5.06655,3.15686 l 3.00075,-2.11013 2.0658,-1.04673 z m -11.16179,-1.4085 c -8.2286,8.83776 -10.72182,2.3855 0,0 z m 14.49199,-2.32056 c 4.42002,0.0395 -1.69531,5.11455 0,0 z m -12.64302,-13.01707 c -7.91504,9.66995 -33.74877,26.8065 -12.45412,7.65366 3.72621,-3.16174 7.86878,-5.90566 12.45412,-7.65366 z m -21.38786,4.65266 c -4.77388,13.19721 -9.99245,-0.62047 0,0 z m -26.49018,1.39696 c 9.94356,-3.2863 30.29418,-17.26329 12.4663,-1.2779 -6.88598,3.07576 -13.33438,13.24075 -12.4663,1.2779 z m -14.41343,2.78236 c 1.49934,-11.75084 17.64395,-5.24966 0,0 z m 33.98118,-26.93467 c -8.13235,7.72408 -33.93463,30.82775 -15.57621,8.56406 2.38884,-3.18336 24.54391,-23.11 15.57621,-8.56406 z m 2.27729,12.98822 c 1.78966,-12.16671 32.98843,-28.16773 11.2133,-8.67613 -3.39559,3.28678 -6.99151,6.4809 -11.2133,8.67613 z m 53.47505,-21.38726 c -4.73576,13.19907 -14.67386,9.81558 0,0 z m -11.15947,12.08769 c 0.46196,-5.37955 4.89737,-1.18905 0,0 z m -13.48405,0.93516 c -4.31297,-3.86079 6.93551,-4.69191 0,0 z m 41.38158,-2.33211 c -2.15126,8.55137 -12.75391,11.79127 0,0 z m -14.87292,2.79391 c -3.69262,7.47135 -7.97844,3.66641 0,0 z m -30.81327,1.92225 c -0.81967,3.55629 -2.21279,-3.33167 0,0 z m 8.49432,4.12737 c 5.52207,-10.19227 6.37774,0.97572 0,0 z m 44.16394,0.46758 c -2.49504,3.22762 -2.79607,-2.18944 0,0 z m 26.03476,19.51695 c 0.42281,-11.09265 20.50653,-19.79897 4.96169,-4.16233 l -1.88315,1.82395 -3.07851,2.33888 -3e-5,-5e-4 z m 20.92546,-6.04385 c -2.23913,-7.69499 10.32917,-9.06579 -2.6e-4,0 l 2.6e-4,0 z m 18.67993,-2.92667 c -12.6242,14.69141 2.54932,-15.7932 0,0 z m 25.02396,2.1012 c 9.96733,-20.92014 -2.80503,15.89235 0,0 z m -5.48391,5.55318 c 2.2846,-7.50758 4.46841,7.37145 0,0 z m -14.50639,-3.33075 c 17.54462,-17.97868 5.94551,6.42424 0,0 z m -31.14285,2.79391 c 1.49563,8.49261 -6.10879,1.67537 0,0 z m -18.64531,4.58917 c 5.4713,-6.45838 -0.53937,5.7743 0,0 z m -23.21253,-8.78004 c 3.85305,2.53347 -4.38324,4.25093 0,0 z m 7.44773,-4.64689 c -4.89937,6.84032 -5.03445,-1.80313 0,0 z m -19.57468,1.49509 c 15.42039,-3.43472 -9.35973,13.78786 0,0 z m -18.54833,-6.60956 c -2.87677,8.77052 -3.36181,-0.46628 0,0 z m 39.9904,3.71174 c 1.82064,-10.38439 6.2271,-1.97849 0,0 z m 5.10293,-7.89106 c 4.73996,3.70791 -5.98478,5.50089 0,0 z m -70.19524,-0.94092 c -2.07341,9.82917 -24.4538,9.20078 -7.34891,2.91368 5.52256,-0.91029 3.42177,-3.04536 7.34891,-2.91368 z m 16.74036,12.56104 c 1.04769,-5.34294 3.90781,0.63566 0,0 z m 20.9099,-4.65266 c -5.21956,14.88274 -17.09261,5.21996 0,0 z m -29.28871,12.56104 c 0.81722,-6.03411 4.27901,0.42392 0,0 z m 35.80069,8.82622 c -4.02186,-5.47169 15.67525,-11.15107 1.4176,-2.55697 l -1.41746,2.55697 -1.4e-4,0 z m 20.4521,-6.96746 c 8.9801,-10.28658 6.35309,-3.91496 -0.45543,2.79391 l 0.45534,-2.79391 9e-5,0 z m 43.24963,6.49988 c -6.39749,-1.03774 19.20431,-20.44126 5.34924,-4.92614 -1.08576,2.3989 -3.95224,2.89675 -5.34924,4.92614 z m 38.12762,6.82314 c -7.03243,-6.7618 11.54631,-7.82226 0,0 z m -13.96377,-1.24109 c 0.68511,4.87789 -2.5701,-0.76757 0,0 z m -14.87006,-3.24417 c 2.04216,6.43355 -8.29248,6.32293 0,0 z m -59.05369,14.40826 c -0.38909,-8.68663 18.50774,-13.63561 1.68289,-2.95212 l -1.68265,2.95212 -2.4e-4,0 z m 40.92214,-10.68497 c -3.5029,6.36824 -4.20729,-1.11368 0,0 z m 6.03808,-5.12602 c 2.9055,0.8181 -2.73837,2.7037 0,0 z m -16.1458,1.23532 c -12.75108,14.05991 -2.17446,-4.81834 0,0 z m 60.32881,-2.17047 c -0.26546,2.34702 -2.73333,-0.81213 0,0 z m -13.02285,-0.4558 c 0.26314,6.59843 -4.7634,0.69011 0,0 z m -63.23124,-12.56105 c 2.34716,-12.12632 21.99645,-24.43438 5.85917,-5.76179 l -2.44133,2.71597 -3.41798,3.04582 1.4e-4,0 z m 28.83268,-14.40248 c -1.80302,-3.09304 3.45756,-4.2628 0,0 z m 27.42534,0 c -2.48677,3.60233 -2.51731,-1.50825 0,0 z m -31.6162,4.17932 c -1.9014,-2.82116 3.83434,-3.33426 0,0 z m 13.08634,-1.02174 c 1.97188,-1.45201 1.14165,1.3227 0,0 z m 51.07544,-8.28937 c 1.62693,8.5184 -10.89402,8.74012 0,0 z m -74.00396,0.36944 c 1.64052,4.90809 -3.74328,-0.71658 0,0 z m 5.35114,-3.67711 c -12.30965,10.53401 7.14879,-11.70934 0,0 z m 10.52911,-1.32768 c 0.7739,-3.24581 4.2317,0.45378 0,0 z m 7.44658,-3.71752 c -0.88046,8.93364 -6.35367,-0.15612 0,0 z m -126.03361,48.03331 c 24.94,-17.78267 -1.66222,9.50052 0,0 z m -12.05247,3.57897 c -0.39537,-5.2871 6.6921,-1.68474 0,0 z m -11.63744,3.24994 c 2.7358,-5.18067 5.50145,-0.13296 0,0 z m 20.91216,-3.72906 c 0.36585,6.36878 -4.81148,0.26299 0,0 z m 17.21602,0.9467 c 0.50919,-8.20978 7.98823,-1.50283 0,0 z m 13.48179,-0.46758 c 13.13306,-5.70161 -5.01848,7.24901 0,0 z m 159.94899,-20.46365 c 2.55004,1.97327 -4.4672,2.91187 0,0 z m -15.4069,3.35962 c -6.5793,-0.63567 13.71983,-18.34163 5.64,-5.48415 l -2.67052,3.27664 -2.96925,2.20728 -2.3e-4,2.3e-4 z m 30.92926,-24.48712 c 0.12445,12.3901 -21.36216,26.08337 -6.67858,6.71472 1.13758,-0.7082 7.76637,-13.17315 6.67858,-6.71472 z m 4.92975,11.36613 c 3.43624,-9.4846 6.82778,-1.25515 0,0 z m -2.77659,5.57051 c -1.08679,-5.71323 6.16371,-5.62216 0,0 z m 16.07075,-3.20954 c -8.14269,0.45964 1.42413,-14.34899 0.66962,-3.29612 9.58424,-16.52732 8.92737,-6.27871 2.38622,3.48084 l -3.05584,-0.18472 0,0 z M -441.94819,734.16662 c -4.80044,1.00142 -0.21667,-5.22238 0,0 z m 0.62921,-11.05441 c 14.72862,-0.90151 26.54612,29.00727 34.74627,43.68346 3.07257,20.92628 6.32799,46.85427 -10.86643,62.60631 -0.61548,13.04411 -24.20272,27.94985 -6.56277,9.11112 7.04161,-21.2425 18.85543,-40.62001 14.63823,-64.36839 -6.9556,-19.29729 -17.38581,-36.44054 -31.9553,-51.0325 z m 14.24432,42.19726 c -1.893,-1.74335 0.84682,-3.49392 0,0 z m 0.85895,-7.40039 c -7.92839,-7.83385 -23.96469,-33.33304 -4.39757,-16.17732 12.21165,18.13026 16.08071,41.73013 14.40775,63.23217 0.43724,9.71691 -17.83897,30.96799 -9.72993,10.28306 9.41197,-18.06311 7.80478,-39.14663 -0.28025,-57.33791 z m -74.32837,70.63279 c -3.54511,7.90806 -10.06969,1.63891 0,0 z m 9.3105,-25.10477 c 9.87219,7.57162 -9.49576,7.53823 0,0 z m -14.92949,0.39853 c -7.35678,21.21526 -22.5254,37.34897 -39.15749,51.57344 -5.53369,8.03343 -42.93648,31.89863 -23.45957,13.39722 21.33287,-12.24832 36.07139,-32.76969 51.05928,-51.78618 5.43627,-3.32291 14.82262,-34.23685 11.55778,-13.18448 z M -635.83108,770.8802 c -3.90212,-12.19025 13.23404,6.23953 0,0 l 0,0 z m -8.60916,6.61533 c 18.99998,-7.65639 37.18486,0.96175 54.16027,14.31013 -0.99749,8.33103 20.37723,7.68132 4.64753,12.09924 -10.03652,-14.72109 -28.08619,-23.55082 -45.6123,-22.49558 -9.4809,-3.7279 -33.11787,10.73263 -27.85034,-2.62885 4.7139,-1.80186 9.78538,-0.69985 14.65484,-1.28494 z m -24.06226,46.6479 c 8.77411,-9.90464 26.77513,-21.86641 36.07282,-22.02008 -5.09353,11.0081 -28.95574,14.02005 -35.94614,29.59074 -6.72524,0.96441 -0.40459,-18.33724 -0.12668,-7.57066 z m -1.30575,26.39782 c -26.19934,19.07834 3.85492,-21.43832 7.34756,-9.4059 -1.26862,3.88344 -4.15698,6.99009 -7.34756,9.4059 z m 23.27318,-7.12909 c 9.9072,-7.98429 24.09513,-19.64126 31.61164,-26.02721 -5.00465,5.86418 6.65273,5.61317 -4.424,13.66071 -3.28145,8.36015 7.39629,16.0306 -9.09644,20.5488 -3.59014,-1.41506 15.9969,-27.60979 -0.78794,-13.77978 -4.26614,4.16771 -11.16937,10.99176 -17.30326,5.59748 z m 60.9026,40.45974 c -3.56177,3.22838 -4.82164,-3.34493 0,0 z m 2.32227,-1.87031 c -0.86383,3.02348 -3.87654,0.86567 0,0 z m 0,28.37204 c -3.37092,-10.11119 11.24159,-10.32131 0,0 z m 27.24177,-8.30669 c -2.64103,-4.42642 7.39712,-1.30178 0,0 z m 100.6379,29.22637 c 0.79973,-9.72682 16.26663,-18.04956 20.90985,-20.91968 -5.5201,10.64521 -11.99505,12.70729 -20.90985,20.91968 z m -111.97573,16.16311 c 5.11725,4.20974 -4.95922,0.79353 0,0 z M -706.0465,921.06437 c -2.37164,-1.32507 -0.50672,-4.72759 0,0 z m 22.31027,-231.54234 c 0.76892,5.18892 -3.11049,0.35334 0,0 z m 232.47518,103.21878 c 4.8349,3.89735 -3.08585,7.28717 0,0 z m 33.0253,-85.55481 c 1.81573,-3.33407 4.55748,3.81804 0,0 z m 133.45535,22.78421 c 3.23272,-1.08158 0.035,2.99277 0,0 z m 17.65242,-13.958 c -0.97704,3.15011 -3.72525,-2.66779 0,0 z m 4.19664,115.31226 c 9.7907,1.34099 4.06083,14.49362 -1.01019,10.96782 -7.16065,14.88341 -2.69084,-5.338 1.01019,-10.96782 z m 6.04962,0.93515 c -2.26124,-0.87019 0.44798,-3.79671 0,0 z m -11.15832,-3.71752 c 9.39955,-9.92789 5.84516,2.9899 0,0 z m 5.1087,19.0667 c 0.0635,3.23494 -2.10977,-0.50698 0,0 z m 4.05232,-89.60713 c -1.48338,-2.65305 2.02069,0.22645 0,0 z m 8.03538,47.76776 c 1.90548,1.66714 -0.84582,3.47619 0,0 z m -0.60612,64.75635 c -1.39186,-2.72973 1.9591,0.26278 0,0 z m -83.08993,71.00224 c -2.55586,13.11781 -5.59694,-5.11586 0,0 z m -194.47456,30.53674 c 16.88544,-10.64979 34.66983,-19.80222 46.19423,-37.05808 24.06754,-17.4127 -8.67785,22.19541 -19.35799,25.48991 -15.44423,23.36728 21.50027,-4.57138 26.4412,-14.79845 8.65796,-9.90478 25.63126,-18.00977 10.28954,-1.4361 -8.16951,6.69887 -38.77488,34.9616 -12.77146,22.02524 1.10633,-10.30227 22.95864,-14.41032 29.87446,-28.5226 6.54021,-9.00025 26.6346,-20.73228 10.36372,-3.26896 -9.69031,10.46352 -25.37569,24.52045 -28.90509,33.71884 16.04946,-4.42566 8.03879,-10.33484 24.14407,-17.14624 6.93905,-6.99448 24.00741,-29.96529 29.15282,-25.41761 -7.91195,13.51018 -33.51692,29.8467 -30.29159,40.57233 19.38807,-6.22073 29.99436,-33.5087 45.18763,-40.41849 -2.49025,14.79592 -36.16994,33.29205 -26.41972,42.03302 16.02769,-4.42885 31.64451,-37.27263 37.70989,-35.01451 -1.30581,11.84898 -29.4856,27.58516 -19.07842,32.7926 11.47745,-5.77162 22.22226,-27.38736 30.52217,-27.72625 -3.79708,13.15664 -26.76358,23.17286 -11.1089,23.13604 9.43779,-4.92416 33.03677,-36.9519 16.45233,-11.35823 3.63441,14.75627 26.68636,-26.08733 17.50757,-2.61271 -14.82865,16.95216 15.67166,2.68588 14.37723,-10.16761 10.87694,-3.08365 29.13568,-31.55526 14.64566,-6.5439 -6.6741,11.15248 -18.47261,5.58129 -16.03684,21.41396 14.18379,-5.38588 15.54833,-4.14829 22.95394,-17.6099 5.61652,-1.72399 30.07611,-42.46025 18.82934,-14.28345 -2.25104,19.04948 -3.08546,-4.91273 -10.40231,8.68846 -6.18815,6.22174 -13.55109,27.82406 1.20862,10.57674 7.68499,-8.21795 24.41044,-27.22403 26.87678,-25.92276 -5.3206,8.24927 -27.04867,32.30532 -9.42027,24.02592 13.52243,-19.71848 30.41632,-38.31829 37.99146,-60.98038 8.66058,-20.29665 12.85311,-33.20677 17.89541,-56.90777 0.65733,-13.76223 13.2329,-33.25086 9.40156,-41.50816 -10.67262,8.59487 -11.21586,33.8371 -16.40813,50.69238 -2.75827,18.64148 -11.44354,32.79843 -19.46501,42.34352 -7.2689,17.44341 -8.35074,26.56883 -17.16991,39.50207 -2.24621,-27.84332 21.88071,-41.33634 24.62764,-67.29023 7.25699,-8.21258 13.50815,-45.78178 5.5649,-27.67885 2.85737,9.37142 -15.30142,15.24694 -6.36855,-0.60302 7.6047,-7.02597 4.95627,-25.3029 1.70539,-27.52637 -7.11068,9.76458 -4.52207,44.36386 -6.41849,14.99652 -0.81234,-17.41886 12.42539,-41.93474 -1.89141,-54.64304 -1.7688,22.66715 0.53324,47.07293 -5.94394,68.93868 -2.83347,10.37235 -15.9794,49.98 -11.25377,19.55286 9.29372,-18.04971 8.98682,-40.0261 11.35216,-57.7285 0.97312,-18.39674 0.0461,-40.54499 -8.40828,-54.60103 -1.2947,3.872 -2.41301,-24.72835 4.00591,-6.93882 10.90572,26.14534 7.85909,-13.45442 -6.01886,-18.04155 -0.71205,-7.68993 -24.31071,-37.30028 -17.55935,-17.2231 17.31947,12.24203 9.51086,40.92469 21.30419,59.27524 0.50839,21.61422 5.88712,44.71245 -2.42266,65.40272 -5.57693,12.85209 -8.78365,34.36124 -14.63669,42.43779 -0.71568,-13.18095 13.40941,-35.55898 10.23607,-54.54689 4.10998,-9.87728 4.36864,-23.19362 0.97228,-25.60086 0.87308,-19.24702 0.55182,-43.16314 -12.37684,-57.69716 -0.93419,-14.48487 -11.92283,-40.26485 -26.91789,-51.09898 6.25701,22.46883 22.01885,41.00387 26.29211,64.28711 7.38083,8.58182 -10.99871,15.53279 -6.4662,0.0409 3.11349,-12.74659 -17.86459,-18.47104 -7.76635,-3.44213 9.94775,12.32185 -10.68199,5.19022 0.96906,13.04305 -12.76618,-2.33886 -11.99129,-26.87951 -22.50433,-41.66174 -18.25864,9.30492 18.1676,34.13676 13.96566,51.10156 4.48971,13.52597 5.29599,34.07303 -0.14395,42.09453 6.90214,-0.82139 -0.71046,29.10642 -3.3212,12.04422 -6.66174,5.01461 4.40741,-25.44449 0.81077,-34.13736 -6.21963,-10.85382 -3.28635,-25.49553 -6.00334,-32.24666 -3.60819,8.6222 -4.9896,-21.30418 -15.44588,-21.99834 -15.49399,-10.84833 -29.65077,-40.29085 -43.56906,-43.19519 6.15448,15.56839 25.49164,27.95328 35.16317,44.01737 16.20459,15.30257 24.061,41.41721 18.63605,60.14874 2.65208,15.4569 -0.87089,41.81277 -6.87799,51.24067 -0.80184,17.71473 -12.65167,2.93839 -0.86299,-3.33364 9.48631,-20.95056 3.8661,-44.11352 3.71373,-65.71117 -5.16493,-22.53744 -14.33161,-39.23163 -31.23267,-55.11898 -19.03769,-12.55535 -27.03618,-33.21821 -42.0481,-49.05498 -18.28948,-15.62872 9.60935,14.09237 11.89215,24.47702 11.32311,19.83895 38.4419,30.26844 43.24643,53.25817 12.9784,17.86795 14.0088,39.96027 12.17789,61.48187 2.01676,10.0086 -8.70607,30.2746 -5.72419,9.36451 4.53963,-4.16444 -2.55017,-19.84939 0.008,-28.84538 -10.65748,-10.30009 8.60773,-13.1329 -1.9204,-26.40632 -4.99463,-11.39025 -18.17885,-32.84772 -26.45605,-21.40898 -13.89867,-15.59762 -26.8698,-32.54957 -42.26428,-47.07371 -8.92845,-9.90785 -28.83918,-29.2607 -36.71934,-24.72119 17.0531,12.14731 29.09636,28.17677 45.5489,41.13512 12.73749,15.92962 29.25561,31.21114 37.07626,52.48983 6.67758,7.55874 11.62618,44.81844 4.46903,18.90668 -13.71179,-31.75493 -35.64342,-60.16082 -62.22606,-82.20675 -17.20307,-8.6726 -28.07293,-30.23184 -45.97226,-35.49895 1.39336,7.43391 -16.82765,-18.85114 -12.85966,-5.1722 7.41969,0.48885 9.55271,9.19796 17.9229,16.62541 12.6574,9.93406 40.43786,23.90795 53.09914,44.53011 15.49709,8.46752 38.58405,46.4865 33.05296,52.25017 -8.37346,-22.00294 -27.62673,-36.39207 -41.50379,-55.09277 -7.10598,-12.46201 -33.80483,-18.66817 -13.27586,-2.13666 24.78551,23.13306 50.45704,49.44967 58.14251,83.57867 -0.10877,13.99676 -2.03163,45.78213 -11.98569,45.46263 5.84892,-16.50331 10.90162,-43.28961 4.03411,-61.48972 -12.10111,-18.80799 -20.09892,-33.77914 -38.61376,-49.55121 -12.70612,-15.5132 -30.89233,-26.89434 -46.36272,-39.98053 -12.87831,-9.16204 -25.45877,-30.16687 -42.91307,-25.11063 13.87527,11.84467 30.60309,25.27448 45.38558,38.29259 9.86568,10.91088 -20.22913,-7.3387 -21.67546,-15.05235 -7.70574,-3.77053 -33.62436,-23.9995 -31.25551,-12.39671 16.48489,8.70163 30.36412,25.05589 44.24016,32.69702 10.92165,5.44605 35.56032,23.15066 31.17842,28.72543 -19.93627,-14.5731 -39.33797,-30.19425 -59.19218,-44.85601 -18.02625,-9.04629 -35.10226,-20.44589 -51.8697,-32.65057 -22.03038,-6.26533 14.59264,12.19761 7.85442,10.82264 15.56677,15.00374 36.39672,22.26697 52.49336,35.31983 6.92928,13.78283 34.59084,21.56236 32.8954,29.398 -8.14657,-2.07436 -29.85026,-26.39329 -30.54673,-13.68568 14.85745,13.76827 38.29357,21.9846 41.61037,44.65636 6.05762,19.07438 18.40388,39.3991 10.07442,60.14223 -14.72798,21.03542 1.45268,-17.41206 -2.53071,-25.82448 -2.028,-19.23022 -11.07091,-28.59695 -17.0362,-44.08913 -6.99916,0.27121 7.17906,18.77654 2.64953,26.79748 5.30685,13.3094 8.2073,22.44003 1.06445,30.95814 -5.27784,14.92517 -0.0469,24.72697 -13.93722,34.86614 14.60146,-21.81353 12.17057,-55.99686 4.6266,-73.53206 11.86674,2.32556 -22.31889,-40.10272 1.39125,-20.21976 0.0918,-20.73779 -29.61801,-27.74936 -43.43406,-41.01936 -12.19939,-4.67609 -23.2999,-22.05523 -3.37752,-7.88549 16.98477,9.94153 -1.57089,-14.74358 -10.32946,-13.03017 -17.62236,-12.46345 -36.92946,-23.2091 -56.79533,-32.35437 5.21095,6.73901 45.40077,25.08342 51.2296,38.2322 -22.25273,-8.17768 -40.48056,-26.66485 -63.7754,-31.4009 4.13415,0.6932 24.40375,18.15911 6.08594,8.95804 -19.31404,-15.07792 6.10794,16.02 16.21338,17.59551 8.49679,2.95025 26.53283,23.12886 7.20926,11.92582 -15.94587,-8.64042 -33.52051,-26.49262 -46.22406,-27.90434 -4.20789,-1.9274 20.27653,19.93998 23.99923,23.92069 13.32591,-1.35065 15.75764,17.1132 2.14914,4.31135 -5.72063,-4.58136 -41.29231,-26.60696 -27.63979,-8.19051 17.83873,9.15807 30.20076,24.4546 50.42524,30.52591 10.31371,2.65962 33.29229,22.0888 11.3364,8.66792 -22.40974,-13.12913 -47.21658,-21.63669 -69.6115,-34.54504 -4.67591,-9.22788 -40.95437,-21.24339 -19.13835,-6.76154 11.80608,14.34956 35.07693,17.586 50.6098,30.42935 12.31198,6.64204 17.7637,15.43347 1.03566,5.43689 -18.90453,-8.98693 -36.01516,-20.32833 -55.49084,-27.73417 -6.08382,-10.22458 -27.85025,-8.96338 -10.54788,1.09894 1.818,12.19746 11.99805,19.41888 21.95012,20.36539 8.42734,13.25593 44.84071,12.88357 37.13772,24.68664 -17.63492,-13.76513 -41.3396,-12.67209 -53.5685,-28.95936 -4.19517,-11.00987 -41.1674,-29.66325 -22.36407,-9.39281 11.99148,5.4052 27.3993,15.3614 20.64907,25.64946 -9.59163,-9.69242 -27.89425,-33.01453 -38.33855,-28.68284 4.85074,8.75739 31.12802,24.84175 6.26978,18.92147 2.18324,-14.58221 -25.21053,-15.10017 -8.05984,-0.0187 15.14619,13.34161 29.405,28.07454 49.02424,31.28682 9.1751,6.04939 15.89896,10.84542 23.66957,12.43576 -5.26132,13.35965 -12.19466,-3.76588 -24.33957,-2.6698 -16.25439,-13.38424 -37.66016,-22.71978 -50.18399,-42.67303 -21.96988,-12.51539 7.5975,28.65641 16.55614,29.80676 2.93678,9.0426 -18.88469,-12.13978 -22.24182,-19.14052 -3.73827,-9.51936 -13.81479,-20.7702 -5.51049,-3.49639 4.84429,5.39392 15.55487,37.02582 2.47796,19.57963 -3.1881,10.44836 7.80893,32.52879 -4.52486,10.9626 -0.10134,-5.96159 1.03606,-25.26787 -3.67156,-8.01259 1.36048,14.50702 -15.0831,38.41826 -12.52452,43.91228 6.0903,-15.56326 17.20851,-1.95109 1.16151,0.87779 -13.15026,16.26181 -12.58285,39.04191 -27.30607,55.01113 1.39131,16.57615 -22.32104,28.73937 -17.93759,41.53342 13.89532,-8.63944 21.51671,-24.59218 29.0024,-37.81013 0.0251,17.63009 -12.47059,25.49897 -20.45442,44.17147 17.92382,2.05636 20.11264,-36.60826 31.27253,-35.05824 -4.8048,13.33598 -19.17042,33.30875 -18.63306,42.23546 17.07377,-8.10572 15.50813,-37.64809 33.39016,-34.60256 -9.32693,13.3686 -27.4297,37.17868 -28.32425,44.54164 6.08704,3.52525 33.22075,-38.79679 20.52803,-13.51369 -6.63382,9.82581 -25.18193,28.24577 -6.6518,20.45616 5.753,-4.71604 20.649,-36.55991 20.856,-22.77149 -11.83479,6.59946 -20.888,43.15821 -7.50191,21.56837 5.84833,-3.68935 23.65051,-29.13489 11.54763,-9.33591 -9.62566,11.3033 -20.3163,43.29711 -1.88082,19.67047 -2.80494,-10.84315 26.75477,-28.25877 11.05917,-8.13738 -8.18979,4.98923 -25.61856,36.42497 -5.07143,22.01538 3.22631,-8.66761 25.41958,-36.63637 14.53817,-14.75725 -8.02438,6.78884 -25.31928,35.86446 -6.13638,25.8012 8.92002,4.56958 16.64169,-6.94435 22.07612,5.28254 25.58049,16.81466 40.36989,-15.00503 57.72122,-23.40251 6.00379,-6.81151 20.94381,-16.26475 9.27264,-1.0821 -7.28523,12.36503 -34.76958,18.48189 -31.31683,32.14826 23.61804,-6.45942 29.3975,-31.62805 48.4403,-37.04652 9.19453,-10.44889 17.77841,-10.08038 2.86453,1.40084 -12.22948,15.26209 -26.89557,23.27781 -40.12042,37.40483 6.80273,11.29296 21.09437,-17.30127 32.07863,-22.16227 8.92698,-9.08466 35.80883,-24.89695 15.19143,-4.99246 -18.35034,8.28495 -2.36876,18.58145 7.61306,4.4167 4.91485,-7.60395 29.8734,-30.30909 15.17048,-9.53173 -8.03699,15.58582 -44.86107,28.95961 -36.75738,41.54525 15.89712,-10.23484 27.70166,-25.90099 44.70885,-33.60868 3.75457,-7.97472 26.33061,-33.76473 24.27153,-21.89809 -15.45618,8.40313 -24.47929,31.3893 -36.70739,38.70773 9.79093,2.67128 22.62697,-21.07407 27.53963,-13.8997 -3.36875,12.77554 -30.91155,21.4389 -23.59868,31.92951 17.55061,-12.12078 38.25227,-18.7007 52.6497,-36.40839 7.50734,-7.43522 16.20305,-11.1038 5.15414,0.22809 -7.5629,19.1401 -41.58307,23.22675 -39.38158,39.19067 l -0.002,-0.002 z m 76.36433,-331.37264 c -9.69209,-9.22647 -1.88524,11.91807 0,0 z m 9.7706,-3.71175 c 13.64937,10.9325 30.94772,25.0391 41.85729,42.77452 14.97502,6.0625 21.69447,32.1123 34.87191,32.53404 -10.26299,-21.47514 -33.47793,-28.98327 -39.16876,-48.38742 -10.31508,-9.77436 -25.28664,-24.50387 -37.56044,-26.92114 z m -17.67436,4.16778 c 3.40732,-6.9025 -5.25133,-3.14834 0,0 z m 101.60192,-2.07235 c 4.17267,3.47797 -2.19837,-5.60436 0,0 z m 22.54176,4.26591 c 5.18936,-9.90764 -8.343,-2.63555 0,0 z m -280.36071,29.43995 c 3.28297,-13.34782 -14.0478,0.10469 0,0 z m 200.39949,-30.69836 c -3.34467,-9.43368 -14.96259,-3.84408 0,0 z m 4.6469,3.71751 c -1.8265,-9.68905 -8.31696,0.30755 0,0 z m -61.83776,6.52297 c -8.63922,-1.74093 -29.84286,-23.46991 -19.0802,-6.97963 11.36328,9.02648 27.4293,27.08718 41.8257,35.68512 13.08409,-2.49737 -17.94803,-23.63143 -22.7455,-28.70549 z m -60.91821,-7.44657 c 3.368,13.63962 15.94537,2.02364 0,0 z m -69.74151,-2.32634 c -3.12688,-0.768 -0.35793,1.75927 0,0 z m -10.70169,6.979 c -12.41182,-3.05867 5.37356,11.59446 0,0 z m 0.47565,9.30534 c -13.10751,-18.25246 -12.52002,2.00261 0,0 z m 30.22442,-19.5285 c -3.75223,-0.66092 0.0103,2.99802 0,0 z M -716.9693,812.3559 c 6.29239,-10.98787 -10.55919,4.7541 0,0 z m 174.12576,-168.88142 c 11.46073,5.4772 2.50786,-7.36657 0,0 z"
       id="path23340"
       inkscape:connector-curvature="0" />
  </g>
</svg>
