<?xml version="1.0" encoding="UTF-8" standalone="no"?>
<!-- Created with Inkscape (http://www.inkscape.org/) -->

<svg
   xmlns:dc="http://purl.org/dc/elements/1.1/"
   xmlns:cc="http://creativecommons.org/ns#"
   xmlns:rdf="http://www.w3.org/1999/02/22-rdf-syntax-ns#"
   xmlns:svg="http://www.w3.org/2000/svg"
   xmlns="http://www.w3.org/2000/svg"
   xmlns:sodipodi="http://sodipodi.sourceforge.net/DTD/sodipodi-0.dtd"
   xmlns:inkscape="http://www.inkscape.org/namespaces/inkscape"
   width="725"
   height="497"
   id="svg2"
   version="1.1"
   inkscape:version="0.91pre2+osxmenu r12825"
   viewBox="0 0 724.99999 497.00001"
   sodipodi:docname="illustration2.svg">
  <defs
     id="defs4" />
  <sodipodi:namedview
     id="base"
     pagecolor="#ffffff"
     bordercolor="#666666"
     borderopacity="1.0"
     inkscape:pageopacity="0.0"
     inkscape:pageshadow="2"
     inkscape:zoom="0.35"
     inkscape:cx="617.0443"
     inkscape:cy="480.95823"
     inkscape:document-units="px"
     inkscape:current-layer="layer1"
     showgrid="false"
     inkscape:window-width="1115"
     inkscape:window-height="717"
     inkscape:window-x="0"
     inkscape:window-y="23"
     inkscape:window-maximized="0"
     fit-margin-top="2"
     fit-margin-left="2"
     fit-margin-right="2"
     fit-margin-bottom="2" />
  <metadata
     id="metadata7">
    <rdf:RDF>
      <cc:Work
         rdf:about="">
        <dc:format>image/svg+xml</dc:format>
        <dc:type
           rdf:resource="http://purl.org/dc/dcmitype/StillImage" />
        <dc:title></dc:title>
      </cc:Work>
    </rdf:RDF>
  </metadata>
  <g
     inkscape:label="Layer 1"
     inkscape:groupmode="layer"
     id="layer1"
     transform="translate(852.67764,-546.40993)">
    <path
       style="fill:#000000"
       d="m -141.61316,1029.5232 c -21.96395,-14.8748 -59.7132,-3.9129 -87.56841,-8.216 -74.85675,-4.0147 -150.31819,-1.1736 -225.05454,0.5543 -58.54877,5.4786 -117.60194,4.8287 -176.26057,1.7422 -27.61532,-5.7098 25.84571,-3.65 32.983,-4.2605 48.16065,0.2418 96.47716,-0.6513 144.46828,-2.3841 64.99627,-5.045 131.04472,-5.66 196.4424,-3.1287 33.86847,0.9672 67.80651,1.5617 101.61933,2.2562 19.424,5.186 10.35792,-18.21217 11.85128,-29.37323 -2.06667,-31.13194 -1.49049,-62.45039 1.13517,-93.49096 15.83149,-12.74405 3.17939,31.58571 6.94619,41.39344 2.03642,26.14767 -4.99417,51.48216 0.48779,76.21235 -0.19606,4.7056 0.27963,20.2314 -7.04992,18.695 z m -521.27205,-2.0307 c -53.42235,-3.5999 -106.98922,-3.3868 -160.45709,-5.1343 8.68999,-11.6375 52.2461,-3.2577 74.07374,-5.2466 35.32481,1.5355 70.78636,2.4179 105.99914,5.0558 6.9053,10.2408 -15.53094,3.1449 -19.61579,5.3251 z m -171.13232,-3.2202 c -6.23831,-49.24228 -3.54935,-99.41845 -7.67231,-148.88721 2.33205,-36.64658 6.78955,-74.20197 -1.95446,-110.22678 5.89897,-47.56874 4.71093,-95.65682 3.29044,-143.52119 7.39479,-16.18925 -2.97487,-67.00323 26.64437,-38.13118 22.13592,18.72363 -9.72523,2.18103 -14.6434,-2.67141 -8.62765,30.03191 -0.48177,65.28621 -3.57996,97.22764 3.53865,28.947 -6.75898,58.80006 -0.72699,85.68434 5.55279,37.75539 0.67044,75.83577 -0.14094,113.68932 2.76898,41.55384 0.39366,83.87842 4.61619,124.98607 32.86613,-26.55445 61.32661,-58.94163 96.33933,-83.24161 9.62755,-12.03452 27.52822,-12.47621 8.59448,1.076 -23.60039,19.11077 -44.87135,41.0567 -69.71071,58.71105 -8.64492,14.97305 -29.85095,21.65076 -35.5598,36.76346 -0.50298,2.24 -0.61027,11.518 -5.49624,8.5415 z m 676.93806,-21.7362 c -40.47785,-28.27468 -82.0009,-56.28457 -114.19301,-94.42157 18.4255,2.55413 37.98743,29.71506 56.6046,44.18684 19.26493,17.88209 41.27095,32.48474 61.4854,49.19173 6.23572,3.7168 -2.80061,6.2454 -3.89699,1.043 z m -551.76542,-98.48138 c 8.29759,-18.91583 16.93569,2.38454 0,0 z m 424.25561,-6.87213 c -12.54193,-5.4606 -23.466,-26.07376 -3.59031,-11.18118 4.63861,3.94057 20.8792,19.725 3.59031,11.18118 z m -408.2307,-7.5067 c 12.13401,-23.20988 41.83394,-40.17143 63.18768,-57.78981 15.98988,-5.50464 36.12369,-37.65422 47.18542,-30.48379 -23.46926,26.84749 -56.25654,43.62499 -81.93996,68.23265 -10.50144,3.32827 -17.54853,23.72765 -28.43314,20.04095 z m 549.65528,-6.87428 c 0.2503,-34.24634 -1.26504,-69.62467 1.74192,-103.1409 9.96595,21.34105 1.27421,53.63664 3.94707,78.85721 -1.69632,4.95697 3.15923,27.0736 -5.68899,24.28369 z m -163.23616,-4.24284 c -0.78049,-17.3235 10.99029,3.97136 0,0 z M -492.75662,862.8226 c -20.83445,-7.42848 -48.97407,-31.91283 -54.13726,-46.44181 23.05695,9.81633 44.70383,58.07652 70.37941,30.80926 27.61297,-21.87107 57.17542,-41.15573 83.69575,-64.35778 23.9741,-16.85371 46.39506,-35.84839 68.39883,-55.06471 31.09075,-21.33712 60.54468,-45.01276 87.65683,-71.30043 23.81977,-13.01576 42.14007,-38.25902 65.18816,-54.45503 9.36143,-9.39655 42.23947,-28.48342 9.12465,-23.53498 -38.38872,1.83688 -76.78472,-3.09911 -115.2433,-0.0466 -43.71937,0.2729 -87.40198,0.82215 -131.02921,-2.13572 -29.5128,-1.93181 -58.76415,3.22337 -88.14549,-0.0681 -15.53461,-8.1637 -48.84574,10.76545 -53.274,-2.86119 30.75488,-14.27541 66.97604,1.61481 99.97518,-3.79784 73.32977,-3.70057 146.73215,4.45027 220.03068,-1.54403 28.17437,2.88749 60.20759,-4.0574 85.61913,5.47574 9.48171,-1.28971 4.67261,28.19754 0.081,18.59644 -28.89637,27.63572 -60.65583,52.02655 -88.84753,80.45919 -25.81648,12.56397 -43.52197,36.23479 -68.71551,49.81769 -22.62258,15.48402 -37.2249,40.90898 -63.21199,51.7696 -16.62684,9.37697 -32.55614,22.90261 -7.2658,33.25475 14.18813,18.28429 45.74294,31.79472 48.72792,53.224 -25.38098,-19.5474 -49.21724,-41.05436 -73.28831,-62.19959 -26.86936,23.67291 -57.4876,42.77838 -86.61368,63.42041 l -5.21371,1.52607 -3.89177,-0.54527 0,0 z m -64.79169,-50.38521 c -11.09673,-4.67342 -48.17548,-43.86915 -19.38107,-23.49198 1.2765,2.22297 42.35341,33.78086 19.38107,23.49198 z m -40.19819,-30.77972 c -28.46525,-23.74422 -55.38996,-49.34974 -83.67707,-73.39215 -31.04952,-29.73101 -63.54512,-57.94165 -96.52716,-85.54872 -14.29383,-5.65548 -37.77193,-43.34892 -11.15552,-18.49675 58.72171,43.99156 109.58362,97.27996 166.0184,144.03763 1.68879,7.40092 48.55283,34.33668 25.34135,33.39999 z m 456.51794,-8.45471 c -1.13255,-43.89444 1.42216,-88.24518 -0.4393,-132.30841 -8.5013,-14.81506 3.41751,-54.20451 4.11668,-17.23335 6.08717,28.01962 0.81478,57.05126 2.93462,85.93221 -3.33688,16.23248 3.21133,60.70114 -6.612,63.60955 z M -577.02983,577.1408 c -3.72888,-19.51379 44.62712,-2.11989 12.14111,-0.0274 -3.97152,-1.46254 -8.39721,1.75341 -12.14111,0.0274 z m -238.20562,-1.32016 c 8.48723,-18.77897 15.95583,5.99118 0,0 z m 15.1207,-1.10561 c 9.36418,-19.36549 15.33582,6.55056 0,0 z m 17.18245,-2.25222 c 21.44392,-15.12335 54.32016,-4.03257 80.26136,-7.50116 37.67103,0.97997 75.76934,-0.37792 113.1891,2.21195 12.44282,10.9797 -31.52373,5.2651 -41.09915,5.64878 -48.88024,-0.2717 -97.8522,-1.64925 -146.68678,0.50807 -0.45694,1.12033 -6.09884,2.01897 -5.66453,-0.86764 z"
       id="path4542"
       inkscape:connector-curvature="0" />
  </g>
</svg>
