<?xml version="1.0" encoding="UTF-8" standalone="no"?>
<!-- Created with Inkscape (http://www.inkscape.org/) -->

<svg
   xmlns:dc="http://purl.org/dc/elements/1.1/"
   xmlns:cc="http://creativecommons.org/ns#"
   xmlns:rdf="http://www.w3.org/1999/02/22-rdf-syntax-ns#"
   xmlns:svg="http://www.w3.org/2000/svg"
   xmlns="http://www.w3.org/2000/svg"
   xmlns:sodipodi="http://sodipodi.sourceforge.net/DTD/sodipodi-0.dtd"
   xmlns:inkscape="http://www.inkscape.org/namespaces/inkscape"
   width="725"
   height="497"
   id="svg2"
   version="1.1"
   inkscape:version="0.91pre2+osxmenu r12825"
   viewBox="0 0 724.99999 497.00001"
   sodipodi:docname="illustration1.svg">
  <defs
     id="defs4" />
  <sodipodi:namedview
     id="base"
     pagecolor="#ffffff"
     bordercolor="#666666"
     borderopacity="1.0"
     inkscape:pageopacity="0.0"
     inkscape:pageshadow="2"
     inkscape:zoom="0.35"
     inkscape:cx="617.0443"
     inkscape:cy="480.95823"
     inkscape:document-units="px"
     inkscape:current-layer="layer1"
     showgrid="false"
     inkscape:window-width="1115"
     inkscape:window-height="717"
     inkscape:window-x="0"
     inkscape:window-y="23"
     inkscape:window-maximized="0"
     fit-margin-top="2"
     fit-margin-left="2"
     fit-margin-right="2"
     fit-margin-bottom="2" />
  <metadata
     id="metadata7">
    <rdf:RDF>
      <cc:Work
         rdf:about="">
        <dc:format>image/svg+xml</dc:format>
        <dc:type
           rdf:resource="http://purl.org/dc/dcmitype/StillImage" />
        <dc:title></dc:title>
      </cc:Work>
    </rdf:RDF>
  </metadata>
  <g
     inkscape:label="Layer 1"
     inkscape:groupmode="layer"
     id="layer1"
     transform="translate(852.67764,-546.40993)">
    <path
       style="fill:#000000"
       d="m -846.19796,1038.8741 c -15.4081,-23.2822 12.51711,-28.3495 29.5933,-26.3595 2.22887,-37.87414 4.15838,-75.91201 5.14366,-113.79792 7.76339,25.37452 0.32254,57.83678 1.18204,85.71692 -8.93769,27.8766 9.55035,33.4374 32.61151,28.6875 56.66681,-0.3732 113.72698,-0.5783 169.82212,-8.4716 -28.16563,-4.5316 -55.77649,0.9107 -83.83574,2.0493 -35.44797,0.3101 -70.67591,3.7841 -106.19351,2.0361 -8.63299,-25.31468 0.25577,-59.7988 -2.50476,-88.41514 4.41122,-22.36037 -10.10321,-56.2134 11.72747,-70.6369 42.38357,-1.83515 84.7025,-1.99149 126.73581,-6.05105 33.72566,-0.55912 68.03712,-4.46212 101.45218,-0.85669 8.3689,27.815 6.74331,59.05601 9.14908,88.38919 -0.90556,21.61377 7.3673,54.44918 -7.47926,70.42499 -10.96317,-0.1577 -54.6136,2.9664 -22.4961,6.1841 18.79257,-0.9975 54.84581,7.13 40.53739,-24.12476 -3.25259,-12.90789 -3.3509,-66.46758 5.39928,-35.99626 14.45503,-15.46546 2.79589,-44.48256 -5.01905,-17.71874 -4.9838,-24.80096 -4.31211,-55.10111 -2.91319,-81.62662 -5.10984,-32.2528 -47.40747,-11.53625 -70.46437,-14.26008 -48.75918,2.15521 -97.87888,-0.19638 -146.60335,4.81648 -16.77214,6.01828 -41.40413,-9.58257 -10.73561,-4.91517 17.76695,-4.73675 43.09234,4.8272 42.18689,-19.71718 -0.46955,18.25079 20.15716,22.07045 16.94469,0.37562 -0.68279,-37.97184 -0.4791,-76.18846 -0.91602,-114.04765 -2.20567,-29.49417 -1.22378,-60.32484 -1.007,-90.10285 -5.84334,-25.95266 2.96471,-39.2887 30.53584,-32.86368 30.65036,0.002 62.12146,-4.18147 92.20117,-0.60852 11.7383,-0.35198 51.28755,-8.14592 45.20503,3.53148 -29.53477,2.2608 -58.78603,-0.96792 -88.17913,3.59099 -22.33322,7.09443 -71.54514,-12.60877 -72.59985,17.86179 2.86812,37.12119 -3.28792,74.43904 0.96485,111.41023 -0.76686,38.79295 1.48798,77.67841 -0.69011,116.3851 46.48089,-0.16517 92.9611,-2.23396 139.60342,-3.67245 22.10364,-7.80119 22.52687,26.06339 40.71366,23.66933 34.46308,-1.64927 69.0337,0.49907 103.23219,-2.56726 15.87401,-3.96419 50.06622,8.27922 43.14098,-18.96032 9.09115,-22.6393 -3.65754,-50.5345 2.399,-71.1514 20.98971,-24.2186 66.12575,-9.64349 96.56038,-15.24558 15.8177,-5.05156 42.51717,5.6225 11.13775,4.5977 -31.41551,5.20883 -64.71508,-2.16018 -94.99835,6.76963 -17.29285,11.45843 3.20303,49.49266 -7.68164,71.21106 -3.4168,25.97206 3.36807,53.96526 0.79941,80.83064 0.96737,28.59838 0.87526,46.00586 0.53828,74.14067 23.59418,7.1566 45.7976,-0.55893 70.85094,1.8411 24.90034,0.0174 50.29237,0.44601 74.56581,0.65326 18.56399,5.08904 6.74256,-32.8533 -10.24333,-18.60485 -26.4284,6.05358 -55.52079,-2.6373 -79.49018,2.79968 -21.48613,3.88096 -52.01581,4.28057 -40.73124,-25.8375 -9.67263,-21.42883 9.37424,-16.48741 4.77336,2.90206 -2.27529,30.37624 44.8386,9.89799 64.66325,15.20522 24.28926,2.38432 55.84631,-7.90408 75.49843,-0.81506 -3.98647,23.60268 19.69091,11.91276 34.08242,14.40512 24.11889,2.58456 47.83726,3.39242 38.8909,-27.6597 -2.45871,-22.57778 2.49402,-44.74378 -1.21619,-63.84133 -12.33152,-8.33582 -50.59007,0.10103 -71.4474,1.93523 2.76631,21.59767 0.18191,51.1303 -5.42044,67.31922 -5.23917,-26.66753 -2.76392,-57.79274 -3.0494,-86.1347 4.34253,-29.36744 2.27773,-59.46004 0.36458,-89.07586 -19.21429,-15.67411 -48.70098,-2.39419 -72.88256,-5.71209 -16.76171,2.8696 -51.5944,-3.19232 -59.00363,8.1682 6.06135,30.97098 -7.95481,62.05705 -0.85079,92.62471 -2.55469,11.27578 5.37725,59.07678 -7.29373,48.42815 3.33956,-30.9619 -3.67291,-62.88588 -0.63052,-92.55286 2.18023,-16.72926 -6.5465,-49.05913 4.62623,-55.45581 9.59615,-14.30479 37.3198,-1.72858 53.4231,-8.55492 24.8731,1.63577 50.69672,-4.82095 76.08216,-0.62258 21.39829,4.2117 7.78393,42.22306 12.1712,59.90384 -9.07716,15.62057 10.60916,31.57461 18.2499,20.0274 -7.33973,-29.23298 9.80464,-71.86375 -10.33251,-93.79463 -33.15067,2.38217 -13.38045,-46.19705 -19.58623,-67.24515 0.7176,-27.31545 -4.13932,-54.84947 -1.8678,-81.70706 2.77601,-21.20463 -5.24594,-58.1057 -29.83466,-39.83766 -30.24375,2.81598 -60.95048,-2.83341 -90.76008,1.42678 -25.61541,-2.76601 -52.56642,0.41772 -78.86716,1.91651 -22.76731,-2.30396 -68.45634,7.60911 -78.4977,-5.41503 30.85234,-2.55624 63.3535,3.4676 93.26702,-3.92153 26.66113,-1.77415 56.1692,0.32234 83.86646,-1.70486 29.08573,-0.43517 58.65197,-1.65271 86.91771,-1.78955 28.51757,6.20228 20.08494,44.32606 21.42814,66.15755 3.67904,31.04403 4.01651,63.8257 2.53979,95.02313 1.06528,14.95128 -7.17995,35.97646 16.83843,33.1869 20.7141,13.95528 3.5822,45.16602 11.21683,65.99104 -7.05021,19.78832 18.78389,49.60419 -17.03665,44.45099 -25.13271,27.76478 30.85244,17.4948 47.37435,16.99809 26.64,7.44371 12.76551,-17.41 12.34769,-26.49898 18.23949,9.71593 8.55205,30.40745 15.06027,44.49676 -1.06924,32.20973 3.04644,63.64389 -0.11406,96.20628 -1.54828,14.30372 -26.15035,27.50949 -33.07439,13.11752 20.21393,4.29727 36.12982,-24.35683 7.93867,-18.61785 -13.19811,0.9823 -52.54633,-6.22279 -52.36941,4.34181 -10.31247,28.36141 39.27948,4.66165 40.02991,18.51211 -20.40386,0.4851 -50.49562,8.7527 -51.38401,-17.51094 -23.94046,9.32956 -58.53563,1.33988 -86.50076,4.35858 -23.82878,-3.25478 -64.84097,15.03286 -70.72,-16.16694 -2.65163,-21.89134 4.04249,-38.12869 -1.30239,-59.57696 -14.24906,-2.26453 -53.86258,-7.40177 -39.35634,18.33797 -1.61724,10.88411 17.40192,42.09031 -3.62473,18.83084 1.37023,-23.06102 -3.87615,-44.16329 -31.12032,-34.29679 -23.83234,7.38835 -72.32357,-15.20374 -71.85255,21.37092 1.65121,14.52049 -28.01666,38.30559 2.86223,29.73648 27.4698,-1.9274 56.09823,2.04262 82.62591,-0.68745 13.6818,9.21656 41.93428,-16.46117 30.16411,5.51319 -24.69755,4.57912 -52.59601,-2.09441 -78.98659,0.99226 -14.1134,5.93877 -53.58275,-11.33216 -46.78381,14.41243 -8.52858,28.43761 48.32712,12.71161 30.8125,42.05501 -24.9565,5.9008 -52.74309,-1.6913 -79.15078,2.5848 -7.63695,12.7531 -28.38638,-2.8702 -45.07289,2.9775 -64.28507,2.1103 -128.79025,-1.8338 -192.87203,5.4318 -7.5769,-1.4031 -19.72133,3.9966 -25.40538,-1.5133 z m 49.84081,-5.4303 c 59.67978,-7.4344 120.10962,-0.358 179.84428,-5.3957 33.30582,-1.5306 66.71183,-3.4707 100.20611,-3.7328 26.26325,-7.7706 -17.74399,-16.9131 -28.30958,-10.5707 -24.46829,-1.7813 -49.81117,-1.4136 -73.91907,1.1275 -27.9596,-4.9909 -57.6795,4.7442 -86.68024,2.2038 -25.38273,3.0225 -48.98398,0.2873 -76.1415,2.5645 -18.82117,4.1472 -47.46742,-6.9492 -61.35929,3.9468 -11.5662,23.5913 37.60288,6.9245 46.35929,9.8566 z m 61.21372,-31.9468 c 28.84183,-1.56598 57.71929,-2.06674 86.48283,-4.54057 29.24965,-0.80584 58.59977,-0.37168 87.7293,-3.52283 1.50937,-25.2936 -2.10652,-51.27678 -2.85201,-76.70182 0.27608,-21.3051 5.25821,-54.74743 -4.32388,-69.56638 -37.8558,3.80521 -76.23376,1.04407 -114.19705,5.18505 -35.97754,1.13582 -71.91243,6.06543 -107.87759,5.12268 -4.53016,30.23088 0.67879,60.72718 -2.39247,91.12065 8.19643,15.19772 -15.38402,55.36862 8.90584,53.87042 16.15878,0.043 32.42542,0.4609 48.52503,-0.9672 z m 229.04434,-91.12332 c 42.19604,-1.75434 84.48703,-2.64571 126.69366,-5.06246 -4.15035,-11.2589 10.77311,-41.67159 -10.32672,-38.40148 -30.76648,1.5027 -61.8683,0.49271 -93.05237,0.72809 -23.36094,1.42942 -67.15486,-8.83675 -54.26549,28.81562 -5.16691,25.3981 17.03528,11.17891 30.95092,13.92023 z m -12.13993,-48.4789 c 27.64996,-0.46229 57.13022,-3.92244 83.74399,-1.21882 15.62922,-2.13641 41.18229,0.78878 55.07046,-2.66193 -8.07237,-9.43926 -33.9254,-4.11552 -48.00012,-3.53006 -26.99143,0.15389 -53.62451,0.91108 -81.32995,0.91984 -7.77839,2.5794 -34.1428,-5.17674 -26.60812,7.38464 5.7287,0.22749 11.41885,-0.56897 17.12374,-0.89367 z m -293.91534,31.28882 c -7.24972,-24.15231 6.64978,-14.00611 1.78704,2.63994 l -1.78704,-2.63994 0,0 z m 0.9799,-21 c -4.71802,-20.09025 8.04766,0.59238 0.2926,2.02693 l -0.2926,-2.02693 0,0 z m -1.1827,-16.83333 c 2.84171,-4.04941 3.10184,5.18202 0,0 z m 2.25,-5.13163 c -6.60682,-18.10697 30.42245,-18.82613 6.2622,-4.9247 l -3.23865,4.28212 -3.02355,0.64258 0,0 z m 631.00001,-1.26051 c -9.85694,-16.22396 53.79388,-1.98927 16.0125,-0.32067 -5.27918,0.42377 -11.03482,3.87065 -16.0125,0.32067 z m -552.11228,-39.35859 c -4.05567,-65.65532 -2.87624,-131.62044 -3.9904,-197.3871 -2.10243,-21.67471 4.40406,-70.64722 27.7954,-46.90589 -34.0911,0.74681 -16.25808,46.41334 -20.14612,68.44465 4.03685,55.94074 1.68301,112.1332 1.98601,168.25577 0.28604,2.23958 -1.95524,11.90384 -5.64489,7.59257 z m 481.11228,-64.32066 c 17.26795,-11.54306 0.2727,-48.35801 6.20023,-70.84005 -5.46161,-33.80463 -0.97225,-68.84031 -6.95023,-103.00523 -49.21293,1.84741 -98.84665,1.10961 -147.79139,5.34634 -33.8196,3.41692 -67.93469,2.01832 -101.5942,3.06669 -11.97689,2.09049 -60.92681,-1.14525 -24.09691,-6.55739 66.76672,-1.93915 133.74473,-5.73197 200.42156,-3.15988 26.04352,-3.81706 53.13446,-6.4652 79.22869,-2.96239 7.35634,31.43123 3.94174,63.23834 5.59705,94.79326 -0.93352,26.23037 4.06747,52.45921 5.99345,78.97334 24.53315,2.59969 -11.82128,5.86142 -17.00825,4.34531 z m -437.75,-180.47552 c -17.82,0.0839 -19.53071,-6.97088 -0.58291,-6.83023 31.90852,1.67097 63.8762,-5.56885 95.81389,-0.64188 -22.02422,11.34509 -54.6995,6.12939 -80.28978,5.61911 -4.84912,1.16896 -9.80963,3.5084 -14.9412,1.853 z m 138.24996,-2.52826 c -12.43344,1.61852 -60.25429,-3.45528 -24.06648,-7.57362 17.96475,3.15315 54.76064,-5.47646 61.68618,6.43942 -11.93359,2.17825 -25.46878,3.22067 -37.6197,1.1342 z"
       id="path4455"
       inkscape:connector-curvature="0" />
    <path
       style="fill:#000000"
       d="m -127.10715,279.27133 c -21.34511,-14.45562 -58.03078,-3.80266 -85.10117,-7.9845 -72.74766,-3.90161 -146.08298,-1.14049 -218.71364,0.53878 -56.89916,5.32412 -114.28851,4.69256 -171.29443,1.69302 -26.83726,-5.54894 25.1175,-3.54716 32.0537,-4.1404 46.80373,0.23491 93.75892,-0.63304 140.39789,-2.317 63.16501,-4.90279 127.35254,-5.50046 190.90765,-3.0405 32.91423,0.93993 65.89606,1.51772 98.75621,2.19257 18.87673,5.03995 10.06608,-17.69903 11.51737,-28.54563 -2.00844,-30.2548 -1.4485,-60.69085 1.10319,-90.85686 15.38543,-12.38498 3.08981,30.69579 6.75048,40.22719 1.97904,25.41096 -4.85346,50.03165 0.47404,74.06513 -0.19053,4.57298 0.27175,19.66136 -6.85129,18.1682 z m -506.58523,-1.9735 c -51.91718,-3.49846 -103.9748,-3.29131 -155.93622,-4.98953 8.44515,-11.30966 50.77407,-3.16602 71.98672,-5.09887 34.32953,1.49224 68.79196,2.34983 103.01262,4.9133 6.71074,9.95237 -15.09336,3.05635 -19.06312,5.1751 z m -166.31067,-3.1295 c -6.06255,-47.85483 -3.44935,-96.61729 -7.45615,-144.69227 2.26635,-35.614063 6.59826,-72.111333 -1.89939,-107.121153 5.73277,-46.22849 4.5782,-92.96169 3.19773,-139.477477 7.18644,-15.73312 -2.89105,-65.11542 25.89367,-37.05684 21.51224,18.19609 -9.45122,2.11958 -14.23082,-2.59614 -8.38457,29.18576 -0.4682,63.446767 -3.4791,94.488247 3.43895,28.13142 -6.56855,57.1433801 -0.70651,83.27019 5.39634,36.69164 0.65155,73.6991 -0.13697,110.486133 2.69097,40.38306 0.38257,81.51515 4.48613,121.46461 31.94013,-25.8063 59.59874,-57.28097 93.62498,-80.8963 9.35629,-11.69545 26.75261,-12.12469 8.35233,1.04569 -22.93545,18.57232 -43.6071,39.89993 -67.74662,57.05686 -8.40135,14.55119 -29.0099,21.04076 -34.5579,35.72767 -0.48881,2.17691 -0.59308,11.19348 -5.34138,8.30078 z m 657.86536,-21.1237 c -39.33739,-27.47808 -79.69053,-54.69879 -110.97563,-91.76128 17.90636,2.48217 36.91714,28.87784 55.00977,42.94188 18.72214,17.37826 40.10814,31.56948 59.75305,47.80574 6.06003,3.61212 -2.7217,6.06948 -3.78719,1.01366 z m -536.21946,-95.70671 c 8.06381,-18.38287 16.45853,2.31736 0,0 z m 412.30223,-6.6785 c -12.18856,-5.30675 -22.80485,-25.33914 -3.48915,-10.86615 4.50791,3.82954 20.29093,19.16924 3.48915,10.86615 z m -396.72882,-7.2952 c 11.79214,-22.55595 40.65527,-39.0396 61.40737,-56.161593 15.53937,-5.34954 35.10591,-36.59331 45.85597,-29.62491 -22.80801,26.09107 -54.67151,42.39586 -79.6313,66.310203 -10.20556,3.2345 -17.0541,23.05912 -27.63204,19.4763 z m 534.16877,-6.6806 c 0.24325,-33.28145 -1.2294,-67.663003 1.69284,-100.234913 9.68516,20.73977 1.23831,52.12543 3.83586,76.635413 -1.64852,4.81731 3.07022,26.3108 -5.5287,23.5995 z m -158.63699,-4.1233 c -0.7585,-16.83541 10.68064,3.85947 0,0 z m -181.10519,-15.2928 c -20.24744,-7.21919 -47.59423,-31.013693 -52.61195,-45.133323 22.40732,9.53976 43.4443,56.440223 68.39647,29.941213 26.83498,-21.254853 55.56451,-39.996173 81.33763,-62.544503 23.29863,-16.37886 45.08788,-34.8383599 66.4717,-53.51326 30.21477,-20.73595 58.83883,-43.74453 85.1871,-69.29155 23.14865,-12.64904 40.95277,-37.181067 63.35149,-52.920757 9.09767,-9.1318 41.04937,-27.6809 8.86756,-22.87188 -37.30712,1.78512 -74.62132,-3.01179 -111.99633,-0.0453 -42.48758,0.26521 -84.93943,0.79899 -127.33746,-2.07554 -28.68128,-1.87739 -57.10848,3.13255 -85.662,-0.0662 -15.09692,-7.93368 -47.46951,10.46214 -51.77301,-2.78057 29.88837,-13.8732 65.089,1.56931 97.15839,-3.69084 71.2637,-3.5963 142.59798,4.32489 213.83132,-1.50052 27.38056,2.80613 58.51125,-3.94309 83.20682,5.32146 9.21456,-1.25338 4.54096,27.40307 0.0787,18.07248 -28.08222,26.85709 -58.94686,50.560707 -86.34426,78.192257 -25.0891,12.20998 -42.29574,35.21388 -66.77945,48.41408 -21.98519,15.0477601 -36.17609,39.75637 -61.431,50.31099 -16.15838,9.11278 -31.63887,22.25733 -7.06108,32.3178 13.78838,17.76913 44.45413,30.89891 47.35501,51.724423 -24.66587,-18.996663 -47.83055,-39.897663 -71.22342,-60.447123 -26.11231,23.00592 -55.86789,41.5731 -84.17334,61.633543 l -5.06681,1.48307 -3.78212,-0.5299 0,0 z m -62.96619,-48.965613 c -10.78408,-4.54175 -46.81814,-42.63314 -18.83501,-22.8301 1.24053,2.16034 41.1601,32.82909 18.83501,22.8301 z m -39.06561,-29.9125 c -27.66324,-23.07523 -53.82935,-47.9593199 -81.31947,-71.32433 -30.1747,-28.89334 -61.75474,-56.30915 -93.80751,-83.138387 -13.89111,-5.49614 -36.70771,-42.12757 -10.84122,-17.97561 57.06723,42.752097 106.49611,94.539097 161.34084,139.9793771 1.64121,7.1923999 47.18486,33.3692399 24.62736,32.4589499 z m 443.65557,-8.2165 c -1.10064,-42.65772 1.38209,-85.75888 -0.42692,-128.58063 -8.26178,-14.397647 3.32122,-52.677297 4.00069,-16.747797 5.91566,27.230167 0.79182,55.443837 2.85194,83.511067 -3.24287,15.77513 3.12085,58.99089 -6.42571,61.81736 z M -550.25597,-160.36521 c -3.62382,-18.96399 43.36975,-2.06016 11.79903,-0.0266 -3.85962,-1.42133 -8.16061,1.70401 -11.79903,0.0266 z m -231.49419,-1.28297 c 8.2481,-18.24987 15.50628,5.82238 0,0 z m 14.69468,-1.07445 c 9.10034,-18.81987 14.90373,6.36599 0,0 z m 16.69833,-2.18877 c 20.83974,-14.69725 52.78969,-3.91895 78,-7.28981 36.60965,0.95236 73.63454,-0.36728 110,2.14962 12.09225,10.67035 -30.63555,5.11676 -39.94118,5.48963 -47.50304,-0.26404 -95.09522,-1.60278 -142.55389,0.49376 -0.44406,1.08876 -5.927,1.96208 -5.50493,-0.8432 z"
       id="path4542"
       inkscape:connector-curvature="0" />
  </g>
</svg>
