<?xml version="1.0" encoding="UTF-8" standalone="no"?>
<!-- Created with Inkscape (http://www.inkscape.org/) -->

<svg
   xmlns:dc="http://purl.org/dc/elements/1.1/"
   xmlns:cc="http://creativecommons.org/ns#"
   xmlns:rdf="http://www.w3.org/1999/02/22-rdf-syntax-ns#"
   xmlns:svg="http://www.w3.org/2000/svg"
   xmlns="http://www.w3.org/2000/svg"
   xmlns:sodipodi="http://sodipodi.sourceforge.net/DTD/sodipodi-0.dtd"
   xmlns:inkscape="http://www.inkscape.org/namespaces/inkscape"
   width="725"
   height="497"
   id="svg2"
   version="1.1"
   inkscape:version="0.91pre2+osxmenu r12825"
   viewBox="0 0 724.99999 497.00001"
   sodipodi:docname="illustration3.svg">
  <defs
     id="defs4">
    <clipPath
       id="clipPath4784"
       clipPathUnits="userSpaceOnUse">
      <path
         inkscape:connector-curvature="0"
         id="path4786"
         d="m 0,772 1159.999,0 0,-772 L 0,0 0,772 Z" />
    </clipPath>
  </defs>
  <sodipodi:namedview
     id="base"
     pagecolor="#ffffff"
     bordercolor="#666666"
     borderopacity="1.0"
     inkscape:pageopacity="0.0"
     inkscape:pageshadow="2"
     inkscape:zoom="0.35"
     inkscape:cx="659.14803"
     inkscape:cy="640.83434"
     inkscape:document-units="px"
     inkscape:current-layer="layer1"
     showgrid="false"
     inkscape:window-width="1115"
     inkscape:window-height="717"
     inkscape:window-x="0"
     inkscape:window-y="23"
     inkscape:window-maximized="0"
     fit-margin-top="2"
     fit-margin-left="2"
     fit-margin-right="2"
     fit-margin-bottom="2" />
  <metadata
     id="metadata7">
    <rdf:RDF>
      <cc:Work
         rdf:about="">
        <dc:format>image/svg+xml</dc:format>
        <dc:type
           rdf:resource="http://purl.org/dc/dcmitype/StillImage" />
        <dc:title></dc:title>
      </cc:Work>
    </rdf:RDF>
  </metadata>
  <g
     inkscape:label="Layer 1"
     inkscape:groupmode="layer"
     id="layer1"
     transform="translate(852.67764,-546.40993)">
    <path
       style="fill:#1f1f1f;fill-opacity:1;fill-rule:evenodd;stroke:none"
       d="m -478.79599,628.13103 c -40.97295,1.35885 -81.7482,8.02401 -120.46883,21.62627 -6.80914,2.17132 -25.92404,14.05776 -7.01409,6.85381 35.11684,-15.19953 73.65024,-18.71881 111.00311,-24.47612 3.12176,-0.88235 24.61631,3.84844 16.47981,-4.00396 z m 30.3124,1.85433 c -17.86839,3.03965 18.64361,4.9491 22.84337,9.18557 27.65581,4.88823 55.96925,9.06422 80.37733,23.90372 21.13958,8.27158 4.11664,-7.22577 -7.74238,-8.86236 -26.98339,-14.75194 -58.74601,-15.25579 -87.87152,-23.41172 -2.61078,0.44511 -5.062,-0.54258 -7.6068,-0.81521 z m -26.67834,9.0535 c -28.76216,1.00204 -57.83863,3.9078 -85.90488,11.46637 -18.65633,9.58526 -39.16033,15.49502 -56.23616,27.77327 -18.21682,9.25979 -35.57671,18.67844 -50.40013,32.29305 -16.419,5.18931 -25.81434,20.55481 -39.1771,30.32615 -16.20524,16.52357 -35.66017,31.2318 -46.2717,52.17181 -7.40212,10.59607 -12.2352,24.1787 7.1303,27.85525 16.05925,11.74776 33.51231,23.51069 47.7535,36.17967 17.90285,8.97807 34.79785,18.92119 51.50813,29.78427 19.37872,11.87611 41.36995,18.05358 61.86485,27.64282 15.8123,8.8248 24.90272,1.88664 40.02613,7.33123 12.57619,16.07965 39.17895,8.46773 57.92654,12.63593 25.56222,1.19047 50.95951,-0.4015 75.76379,-6.57345 12.81655,-6.26135 22.57198,-4.89272 38.00531,-7.29678 15.6506,-8.89269 33.51534,-12.97108 49.58488,-22.31522 21.49365,-7.15635 38.25971,-21.03294 56.43365,-33.70094 19.09326,-10.5397 33.48585,-26.42029 49.25959,-40.74184 21.09569,-12.97105 23.00365,-34.52661 1.74355,-48.21909 -12.65931,-16.9701 -29.18964,-31.22149 -44.82617,-45.69951 -17.24054,-13.85082 -36.65019,-25.59195 -52.31701,-40.8401 -21.35857,-11.60644 -41.29865,-27.94591 -65.93521,-33.02214 -17.7172,-4.66983 -31.99127,-9.55109 -49.13138,-12.9976 -15.47785,-3.68531 -31.06813,-3.21151 -46.80048,-4.05315 z m 157.26852,34.3885 c -7.3693,8.22416 17.94916,5.48779 0,0 z m -323.99249,0.50522 c -15.91735,11.60795 -31.76297,24.2545 -47.92503,35.95465 -32.6925,26.16472 -62.08965,56.32857 -87.39572,89.54328 10.37977,5.75204 25.73983,-26.92317 37.27624,-35.61708 14.64708,-16.96914 30.70402,-32.46037 48.12667,-46.47901 16.51683,-13.68662 35.97445,-25.91836 50.46325,-40.76674 -3.99148,-4.09094 -0.532,-0.98428 -0.54541,-2.6351 z m 194.47587,6.39545 c 7.08626,7.88006 -8.56475,4.6316 0,0 z m 152.58963,8.00293 c 7.74649,12.44342 26.76673,23.95492 38.6862,36.43702 17.59322,14.81788 35.72075,29.80886 49.56461,48.3014 14.00428,12.83694 27.14781,33.97085 5.71684,46.99103 -22.39594,26.55634 -48.15526,51.63157 -80.21509,65.9119 -4.58086,10.92751 25.17053,-10.18282 31.53613,-13.5585 22.59614,-19.02627 45.2794,-38.52199 63.24039,-62.27508 9.01424,-16.10834 -10.2609,-30.96326 -19.0091,-43.01561 -17.95953,-22.27141 -40.81171,-39.50032 -62.40459,-57.96912 -8.25932,-7.9448 -17.55718,-14.69828 -27.11539,-20.82304 z m -265.6009,2.13568 c 3.1893,12.44855 -18.78883,5.83751 0,0 z m -11.3901,4.67888 c 0.30607,17.90687 -22.93056,34.90533 -27.08024,55.03308 -9.6017,23.94505 -3.71318,50.36035 1.83368,74.50258 3.49476,18.93186 29.51159,35.6438 29.12172,50.66811 -6.56563,-7.90086 -8.9159,-8.55543 -17.1598,-7.68143 -2.09835,-12.76064 -10.1225,0.73795 -13.83004,-7.60104 -3.81506,-0.97518 -13.27012,-2.05722 -17.18277,-9.86879 -7.49448,-1.71927 -15.20971,-1.37172 -16.45366,-13.20424 -5.64574,19.31528 -6.15628,-10.78934 -11.71735,-0.83819 -12.42576,-0.58631 -11.24756,-17.90647 -18.0152,-25.8287 11.84128,-11.33495 -13.32236,-2.4327 -10.62086,-14.7371 -17.31073,2.35805 -6.3355,-10.92031 4.70765,-5.04058 9.26846,-9.84382 -14.52459,-6.78341 1.57875,-13.16982 19.41729,0.1334 -4.62047,-7.70041 -0.52817,-14.15728 3.93434,10.43699 6.57979,-13.54124 12.6646,-7.60107 7.59802,-10.37585 21.18097,-19.03082 28.6016,-24.4451 10.32081,-11.32574 20.5063,-9.87206 28.52123,-21.16126 12.88062,3.45621 14.37993,-10.90006 25.55886,-14.86917 z m -19.11176,164.80073 c 0.089,-0.70282 -1.09141,-0.40897 0,0 z m 146.10232,-156.66 c -0.36071,0.92935 -0.99822,1.38589 0,0 z m 80.00063,0.83817 c 9.90564,4.94332 10.12905,23.22957 15.02417,9.85729 1.94557,9.47227 6.69282,0.15019 9.50705,8.29571 6.43428,-2.06358 13.39612,13.22126 17.96884,10.74723 0.59048,14.39543 9.69951,-4.71819 8.95638,13.72658 2.67543,-9.73998 16.79535,1.07451 16.90721,11.14326 12.60007,-2.1318 0.72451,15.4136 10.29359,13.43389 2.25527,5.0523 4.47188,19.50537 -7.1016,20.73071 8.45445,19.17952 10.51515,-15.53517 14.163,0.29277 10.15966,10.39008 -20.85965,11.02998 -2.41697,16.44792 11.20392,4.22183 -6.77609,5.52214 -8.3761,8.83538 -13.43527,-8.32749 -3.34839,17.13249 -19.5021,17.18852 0.19928,11.81855 -13.94997,6.44521 -17.0335,18.58354 -5.86545,-4.67087 -11.69614,11.72692 -18.77875,12.18236 -8.15725,5.84067 -15.5545,5.13462 -24.05969,10.37207 -2.62221,-5.13884 -11.91853,12.51146 -7.41641,-5.13005 13.03466,-21.45857 28.51871,-42.82099 33.51413,-68.08281 5.11084,-29.60942 -1.98369,-59.82279 -16.91867,-85.51199 0.48018,-3.987 -9.17167,-9.94958 -4.73058,-13.11238 z m -145.86693,6.16009 c 3.13638,3.24959 -3.98056,1.11804 0,0 z m 54.31545,1.20559 c 3.76808,6.90165 -9.10236,7.40367 0,0 z m -82.11331,1.06209 c 5.4556,1.73798 -3.63132,3.62444 0,0 z m 13.92763,1.3032 c 7.18907,8.84977 -5.92767,4.55067 0,0 z m 73.63386,0.78077 c 8.84117,7.6622 -9.54144,6.50994 0,0 z m -30.32961,1.84289 c 5.4368,4.57656 -5.22483,3.06712 0,0 z m 61.79023,1.61893 c -5.70271,14.35052 -16.91196,15.05594 -4.11562,0.997 1.09772,-1.43246 3.13336,0.17312 4.11562,-0.997 z m -80.94791,0.1608 c 11.55893,10.86737 27.47078,1.4767 42.32254,7.42881 13.17238,-0.6446 25.34637,15.33683 38.47034,11.45326 18.88125,-7.81376 -9.4722,20.46478 6.33231,17.2402 11.31207,6.82756 7.1278,25.58342 18.00946,27.3443 -20.06209,-8.0939 -6.52875,19.42511 -17.49459,27.32085 -11.08616,8.19375 18.15392,-1.5314 6.83933,7.88862 -11.06228,-3.23465 -0.25896,11.46038 -13.39944,4.19664 3.51234,4.94455 11.80312,11.81225 -2.44933,6.63366 -8.27796,0.6435 25.69965,21.32624 5.76118,13.03658 -9.92391,-4.83593 -33.55734,2.56893 -30.51022,12.37483 6.56303,8.62181 -2.96787,5.44781 -5.00283,7.20607 -0.63982,-17.93273 -21.98033,-9.77499 -34.89369,-12.00443 -9.7792,-8.66615 -19.94498,-8.70725 -30.41575,-19.23803 -15.41465,-1.86231 -8.40755,-28.75918 -21.60906,-24.47382 -11.79339,0.5911 -36.18401,-2.21056 -10.13284,-5.65486 6.97483,0.0235 22.69121,1.23476 15.0701,-8.20386 18.57253,-7.25484 6.86246,20.2848 15.60399,25.24311 9.99216,11.58605 24.2257,21.27176 39.91131,21.1957 16.6711,4.71638 35.00235,7.29157 46.27234,-9.69651 -6.01059,-10.8176 8.63796,-1.17195 3.502,-13.0665 4.34827,-8.90232 11.9359,-17.51832 10.76436,-31.31134 9.2637,-10.11862 -6.96853,-14.70581 -0.0146,-24.03279 -10.63243,-7.01697 -13.26555,-13.19256 -26.07266,-21.74582 -13.68484,-1.36072 -30.49077,-6.43181 -37.71826,-2.74417 -11.21804,-0.5277 -21.19201,5.55563 -28.73362,16.97035 -12.0653,9.07412 -4.90069,28.09719 -17.87468,33.1529 -13.69111,-2.50685 -12.97412,-3.50768 -4.21297,-9.42229 -10.52852,-0.96515 -23.2266,-14.19438 -4.41197,-8.85273 21.59558,3.55424 -25.80766,-12.06144 -0.72414,-8.43077 11.52396,13.49929 25.22077,-19.51249 12.1996,-12.59571 -7.25807,-11.56791 24.74655,-3.51247 5.20133,-11.50492 -7.12768,-22.86444 12.09827,8.94319 18.38652,-6.67931 18.06216,-0.95865 -9.26056,-3.72341 1.02373,-9.02802 z m 50.83644,138.9261 c 0.0827,-0.59065 -0.65307,-0.13575 0,0 z m -0.2181,-0.25838 c 0.0653,-1.99952 -2.41887,-1.82078 0,0 z m -90.87979,-130.44668 c 4.4202,2.94294 -5.09445,2.50238 0,0 z m -148.74891,3.86368 c 2.21746,0.4861 -1.6811,2.43424 0,0 z m 156.68296,8.07183 c 1.25374,0.56666 0.88645,1.24824 0,0 z m -55.10772,3.16328 c 2.1667,0.53171 -1.65873,2.11375 0,0 z m 189.16543,1.89453 c 1.94095,0.0854 -0.74327,1.61115 0,0 z m -81.26937,0.45927 c 4.43044,1.39918 -4.43992,3.84549 0,0 z m 68.599,0.50522 c 3.55432,2.74815 -4.10228,1.42332 0,0 z m -129.47642,0.78077 c 14.23057,1.44352 6.32862,14.70276 0,0 z m -32.66043,3.98997 c 2.18985,1.57509 -3.04203,1.86775 0,0 z m 138.11083,0.0746 c 0.73265,1.19611 -1.79624,-0.0205 0,0 z m -121.53088,0.47078 c 12.82847,3.94298 -8.35699,4.93168 0,0 z m 111.11674,0.24691 c 4.3631,1.65452 -2.62255,2.78304 0,0 z m -264.33788,0.0517 c -2.21327,2.30253 0.31317,-0.0344 0,0 z m 307.3436,0.16636 c 3.0592,2.60915 -4.547,1.90881 0,0 z m -100.4098,4.11629 c 10.51932,8.00838 -5.67594,6.45685 0,0 z m -90.52386,1.19412 c 5.51389,3.74145 -5.2232,4.96326 0,0 z m 195.01551,1.83139 c 6.59693,4.44714 -12.38187,-0.10819 0,0 z m -160.69015,0.38464 c 11.37885,-0.76298 6.60099,10.41968 0,0 z m -144.88524,3.45607 c 1.60894,0.18606 -0.71621,1.6688 0,0 z m 276.65806,2.59493 c 4.76836,4.46597 -5.98401,3.53366 0,0 z m -80.81585,2.40547 c 1.79169,1.79561 -2.21552,0.95461 0,0 z m -164.00845,2.51454 c 0.99504,1.73977 -1.69946,0.48892 0,0 z m 0.95875,4.33444 c 3.59403,1.69598 -2.39404,2.3788 0,0 z m 106.16803,3.41018 c 5.13269,2.52936 -3.85752,1.05352 0,0 z m -115.61197,0.52242 c -2.48333,5.55606 0.003,1.1253 0,0 z m 132.43306,0.63725 c 8.12196,3.14328 -4.67774,2.6383 0,0 z m 125.119,2.72695 c 5.89931,5.7147 -6.90277,5.15974 0,0 z m -139.13849,2.67531 c 4.25563,1.71225 -4.06831,2.08978 0,0 z m 126.45667,2.69251 c 4.10519,2.29055 -3.97324,2.65711 0,0 z m 175.17468,0.78079 c 15.80446,8.47263 -12.19443,22.50718 -1.42377,0.88983 z m -134.78112,2.45137 c 6.53776,5.95755 -11.06016,2.17239 0,0 z m -296.95815,0.60281 c 4.54225,8.67173 -2.99477,22.88162 -6.9868,7.19921 2.12239,-2.14087 3.56485,-6.63786 6.9868,-7.19921 z m 152.92261,1.94621 c 9.0821,8.72408 -26.85746,-0.19929 -2.82137,0.18547 z m 269.19476,7.06139 c 4.22425,2.21172 -4.33538,3.21077 0,0 z m -297.07301,2.60069 c 8.08444,6.79315 -16.77646,1.47932 0,0 z m -107.58605,1.5845 c 5.99194,1.32807 -2.34067,4.98184 0,0 z m 402.77026,2.58919 c 3.73044,2.46333 -4.30668,3.17614 0,0 z m -412.71363,1.0334 c 7.28937,6.28234 -6.66975,4.69788 0,0 z m 145.72914,2.65232 c 8.90452,6.46086 -20.09134,7.88534 0,0 z m -134.42514,1.28598 c 4.52267,1.47779 -2.64879,3.36072 0,0 z m 177.58589,1.18262 c 2.74905,0.75235 -2.70192,1.77609 0,0 z m -279.74672,1.13673 c 3.08844,15.76322 31.1074,22.18469 43.01144,35.25539 5.37591,7.65674 43.96871,21.98313 21.80426,7.3829 -21.11107,-10.3953 -39.05439,-25.68786 -59.31883,-37.53959 -2.4653,-0.9497 -2.71869,-4.73424 -5.49687,-5.0987 z m 108.48739,0.24691 c 16.58209,8.38335 -8.5436,7.30698 0,0 z m 130.53279,2.47433 c 9.70178,5.5551 -15.50357,5.30046 -3.18511,0.44531 z m 34.41718,2.92218 c 8.14768,2.01715 -6.04567,5.12978 0,0 z m -172.53957,0.24691 c 2.24752,0.23455 -1.01077,1.80988 0,0 z m 280.51025,1.34338 c 9.99154,3.296 -3.59213,5.91348 0,0 z m -139.28777,1.66487 c 11.7089,4.06957 -16.54448,4.40904 -1.96342,0.14337 z m 242.53365,0.56263 c 8.88476,6.10774 -9.10008,10.24713 0,0 z m -153.97321,0.78652 c 5.66543,2.58158 -4.55504,4.45817 0,0 z m -39.03296,4.42056 c 1.35792,-0.0265 -0.57537,0.93084 0,0 z m -175.90377,0.79227 c 1.23855,0.83657 0.49901,0.99204 0,0 z m 222.53781,0.1378 c 1.16275,1.53501 -1.32296,1.35618 0,0 z m -89.43883,0.64873 c 9.34604,10.37981 -19.55724,16.75696 -5.64337,2.65235 l 3.34698,-2.17009 z m -11.42455,0.28717 c 1.05456,0.70897 -1.09469,0.59356 0,0 z m 93.31971,1.0219 c 7.90468,6.47654 -18.34491,7.09689 -2.75569,1.52137 z m 147.41126,0.34444 c 3.97549,4.92109 -6.29296,2.0927 0,0 z m -222.38277,4.13355 c 2.60788,9.01255 -14.85183,11.43221 -1.54801,0.47026 z m 91.41942,10.11559 c 28.97475,5.90881 -6.93624,9.27511 0,0 z m -7.48051,3.33553 c 5.31358,3.36647 -3.62718,2.1075 0,0 z m -0.79797,5.43095 c 1.35449,-0.0346 -0.55931,0.88912 0,0 z m -45.3997,0.33296 c 4.60185,3.49442 -5.37944,5.55875 0,0 z m -55.65312,5.20711 c 4.98991,12.40352 -11.26537,5.94987 0,0 z m 83.07205,2.66954 c 8.56367,9.89552 4.21451,20.50427 -0.22311,3.93099 0.53545,0.56977 -1.29374,-3.68057 0.22311,-3.93099 z m -133.17362,3.3183 c 0.84895,0.68333 -0.98252,0.46383 0,0 z m 95.57591,5.04634 c 4.34314,0.68775 -2.23664,4.22547 0,0 z m 110.30729,5.60316 c 8.42348,10.24877 -23.00977,12.16922 -2.75568,1.52138 l 1.98064,-1.30893 0.77504,-0.21252 z m -97.1834,0.97024 c 5.72378,5.10054 -4.23858,3.44435 0,0 z m 20.72494,1.7338 c 1.41503,1.56914 -1.39692,1.59261 0,0 z m 40.16394,10.22468 c 5.3968,3.00997 -4.07029,3.61141 0,0 z m 116.61662,10.4371 c -26.94648,12.42928 -52.64945,29.32285 -82.49795,33.94644 -22.15594,5.85771 -45.57666,10.12642 -68.22586,10.35676 17.68194,6.58769 41.7296,-2.23264 61.4273,-4.61586 18.1068,-4.61103 36.83724,-8.02296 53.0824,-17.73382 10.38093,-6.03602 35.54255,-11.45097 36.21411,-21.95352 z m -332.79913,1.64768 c 8.87779,9.71948 33.23942,19.87061 49.55617,25.02495 36.25751,11.09511 73.78103,22.67194 112.0011,18.42143 26.34574,-4.47346 -13.84863,-4.81415 -22.08005,-3.93118 -28.16167,-0.26661 -55.43043,-8.06555 -81.9181,-16.98759 -20.71832,-2.07994 -38.39457,-15.39201 -57.55912,-22.52761 z m 232.03336,2.549 c 1.8615,0.92054 -1.99927,0.63432 0,0 z m 55.81386,59.46512 c -1.65516,1.92747 2.48105,1.02033 0,0 z"
       id="path7010"
       inkscape:connector-curvature="0"
       sodipodi:nodetypes="cccccccccccccccccccccccccccccccccccccccccccccccccccccccccccccccccccccccccccccccccccccccccccccccccccccccccccccccccccccccccccccccccccccccccccccccccccccccccccccccccccccccccccccccccccccccccccccccccccccccccccccccccccccccccccccccccccccccccccccccccccccccccccccccccccccccccccccccccccccccccccccccccccccccccccccccccccccccccccccccccccc" />
  </g>
</svg>
